<svg width="331" height="284" viewBox="0 0 331 284" fill="none" xmlns="http://www.w3.org/2000/svg">
<rect width="331" height="284" fill="#EA6A1C"/>
<path d="M150 158C139.768 158.253 141.615 157.744 137 160C133.901 161.515 130 165.387 130 165.387L29 254V197.5L103.5 125.93C108.066 121.544 111.151 117.793 117.5 115C122.095 112.978 130 112 130 112H197.5L150 158Z" fill="white"/>
<path d="M85.6866 209.066L130 169.5C129.988 195.802 130.042 207 148 207H284L266 251L129 252C100.461 250.549 92.5121 238.803 85.6866 209.066Z" fill="white"/>
<path d="M252.806 112C247.206 135.2 225.948 152.5 218.281 158H285L307 112H252.806Z" fill="white"/>
<path d="M72 153L29 193.5V57C31 37 48.5 31 48.5 31C55.1667 30.8333 212.5 31 212.5 31C284.9 83.4 243.5 137.667 214.5 158H150L197.5 112C215.5 93.2 202.5 75.5 190 74H72V153Z" fill="white"/>
</svg>
