<svg width="313" height="303" viewBox="0 0 313 303" fill="none" xmlns="http://www.w3.org/2000/svg">
<path d="M109.459 196.889C106.672 196.982 102.208 197.072 97.8076 196.912C96.2273 196.854 95 195.556 95 193.975V156.171C95 154.115 96.4824 153.087 97.9648 152.573C99.4473 152.059 120.201 152.573 132.06 152.573C143.92 152.573 143.426 128.418 133.049 128.418H97.9648C96.4824 128.418 95 127.904 95 126.876V115.056C95 113.514 96.4824 113 97.9648 113H138.978C151.826 113 159.494 129.697 157.756 143.836C156.112 157.21 151.332 168.505 134.531 168.505H112.295V193.931C112.295 195.524 111.051 196.836 109.459 196.889Z" fill="#71706F"/>
<path d="M198.517 113C204.348 113 209.568 113.972 214.176 115.916C218.856 117.86 222.817 120.452 226.057 123.692C228.608 126.244 230.579 129.019 231.97 132.018C232.61 133.398 231.934 134.99 230.562 135.65L221.191 140.165C219.581 140.941 217.67 140.129 216.805 138.564C215.397 136.02 213.441 133.834 210.937 132.008C207.553 129.416 203.412 128.12 198.517 128.12C193.765 128.12 189.588 129.236 185.988 131.468C182.388 133.7 179.58 136.796 177.564 140.756C175.62 144.644 174.648 149.216 174.648 154.472C174.648 159.728 175.62 164.336 177.564 168.296C179.58 172.256 182.388 175.352 185.988 177.584C189.588 179.816 193.765 180.932 198.517 180.932C203.412 180.932 207.553 179.672 210.937 177.152C213.443 175.272 215.4 173.051 216.809 170.489C217.67 168.923 219.581 168.111 221.191 168.887L230.562 173.401C231.934 174.062 232.61 175.654 231.97 177.035C230.579 180.033 228.608 182.809 226.057 185.36C222.817 188.6 218.856 191.192 214.176 193.136C209.568 195.08 204.348 196.052 198.517 196.052C192.757 196.052 187.392 195.008 182.424 192.92C177.528 190.832 173.244 187.916 169.572 184.172C165.9 180.428 163.021 176.036 160.933 170.996C159.265 166.827 158.288 162.337 158 157.526C159.9 153.626 160.932 148.984 161.537 144.059C161.846 141.543 161.856 138.947 161.594 136.378C163.554 131.955 166.176 128.06 169.464 124.772C173.136 121.028 177.42 118.148 182.316 116.132C187.284 114.044 192.685 113 198.517 113Z" fill="#EA6A1C"/>
<path d="M90.7601 212.5C107.269 232.357 132.158 245 160 245C195.624 245 226.414 224.303 241 194.277" stroke="#71706F" stroke-width="10" stroke-linecap="round"/>
<path d="M235.199 115.337C236.49 117.778 239.515 118.711 241.956 117.42C244.397 116.13 245.33 113.105 244.04 110.663L239.619 113L235.199 115.337ZM160 65V70C192.611 70 220.941 88.3631 235.199 115.337L239.619 113L244.04 110.663C228.118 80.5433 196.462 60 160 60V65ZM90.7601 212.5L94.6049 209.304C82.3597 194.575 75 175.653 75 155H70H65C65 178.074 73.2325 199.238 86.9152 215.696L90.7601 212.5ZM70 155H75C75 108.056 113.056 70 160 70V65V60C107.533 60 65 102.533 65 155H70Z" fill="#EA6A1C"/>
</svg>
