<svg xmlns="http://www.w3.org/2000/svg" width="1000" height="1000" viewBox="0 0 411 411" role="img" aria-labelledby="title desc">
  <title id="title">Isotipo de Panama Collectors</title>
  <desc id="desc">Símbolo PC en naranja, gris y carbón, sin fondo.</desc>
  <g fill-rule="evenodd" clip-rule="evenodd">
    <path fill="#FC8212" d="M201.5 24.017 C199.3 24.482 192.392 25.59 186.149 26.48 C179.905 27.369 173.155 28.696 171.149 29.429 C169.142 30.161 165.475 31.311 163 31.984 C155.223 34.098 149.797 36.152 140.025 40.682 C90.501 63.639 55.552 103.746 39.539 156 C32.958 177.474 31.258 191.382 32.202 216 C32.831 232.378 33.305 236.049 36.336 248 C40.326 263.731 44.125 274.346 49.755 285.5 C55.663 297.203 65.389 312.417 71.802 319.985 C74.582 323.264 74.905 323.389 77.316 322.099 C80.939 320.159 94 308.075 94 306.662 C94 306.015 91.525 302.237 88.5 298.267 C85.475 294.296 83 290.625 83 290.107 C83 289.59 82.601 289.017 82.114 288.833 C81.134 288.464 72.379 271.342 69.161 263.5 C66.337 256.619 61.434 238.113 59.948 228.726 C59.112 223.444 58.912 215.106 59.324 202.726 C59.912 185.037 60.882 178.004 64.457 165.5 C65.401 162.2 66.523 158.101 66.95 156.391 C68.615 149.72 81.943 124.153 88.005 116 C102.356 96.698 123.434 78.53 142.2 69.285 C144.785 68.012 147.175 66.527 147.509 65.985 C147.844 65.443 149.015 65 150.111 65 C151.207 65 153.768 64.141 155.802 63.091 C162.81 59.473 173.728 56.044 187 53.291 C200.132 50.568 231.9 50.876 246 53.864 C256.665 56.123 274.081 61.647 275.01 63.064 C275.291 63.492 276.794 64.161 278.352 64.552 C281.692 65.39 297.299 73.749 303.886 78.228 C315.194 85.916 331.317 100.6 337.219 108.585 C338.474 110.283 340.279 112.444 341.232 113.389 C342.185 114.334 344.609 117.585 346.619 120.614 C351.705 128.276 355.372 131.681 359.133 132.233 C366.279 133.282 373.25 128.517 374.527 121.71 C375.117 118.563 374.302 115.566 371.752 111.506 C368.439 106.23 362.341 97.406 361 95.947 C360.175 95.049 357.925 92.334 356 89.915 C352.196 85.135 337.618 70.563 333.842 67.766 C332.554 66.812 329.7 64.612 327.5 62.877 C310.025 49.094 285.233 36.591 263.5 30.599 C243.159 24.99 212.362 21.721 201.5 24.017 Z M289 128.461 C271.848 131.605 255.775 139.87 244.749 151.215 C237.667 158.502 236.926 160.41 238.061 168.427 C240.118 182.951 234.987 200.856 224.75 214.873 C222.514 217.935 222.55 219.92 225.017 229.568 C228.753 244.174 236.58 256.284 249.044 266.739 C253.145 270.179 257.025 272.995 257.667 272.997 C258.308 272.999 258.983 273.363 259.167 273.808 C259.915 275.62 275.089 281.993 283.5 284.027 C291.34 285.923 294.433 286.14 307.5 285.714 C326.988 285.079 334.247 283.201 348.5 275.111 C354.527 271.689 365 262.207 365 260.171 C365 259.571 363.139 257.375 360.865 255.29 C358.59 253.206 354.214 249.137 351.139 246.25 C344.637 240.142 342.211 239.73 337.441 243.918 C332.782 248.008 324.985 251.728 317.366 253.495 C300.908 257.312 285.152 253.021 273.748 241.618 C264.535 232.405 261.03 222.54 261.012 205.77 C261.002 196.422 261.343 194.204 263.664 188.553 C265.129 184.985 268.509 179.37 271.174 176.076 C275.14 171.175 277.563 169.322 284.512 165.879 C292.478 161.932 293.643 161.643 303.367 161.211 C311.465 160.851 314.908 161.131 319.115 162.496 C326.052 164.744 333.501 169.003 338.306 173.465 C340.399 175.409 342.548 177 343.082 177 C343.616 177 346.831 174.412 350.227 171.25 C353.623 168.088 358.674 163.387 361.451 160.804 L366.5 156.107 L360.575 150.804 C348.347 139.857 342.095 135.83 331.433 132.034 C317.865 127.202 302.792 125.933 289 128.461 Z"/>
    <path fill="#A4A4A4" d="M364.311 280.792 C362.244 281.899 358.548 286.368 353.811 293.491 C341.639 311.789 320.665 331.707 301.304 343.353 C286.343 352.351 264.321 360.408 246 363.584 C234.306 365.612 210.821 365.88 198.5 364.127 C163.914 359.206 133.668 344.122 107.299 318.643 L95.028 306.787 L87.846 313.436 C83.896 317.093 79.39 320.838 77.832 321.758 C76.275 322.678 75 323.826 75 324.308 C75 325.209 93.167 343.524 98.511 348.01 C102.389 351.266 114.006 359.594 121 364.132 C137.001 374.516 155.121 382.295 175.436 387.502 C193.864 392.225 204.697 393.347 225.842 392.723 C250.887 391.984 265.545 388.959 288.5 379.793 C297.22 376.311 312.376 368.975 315.457 366.745 C316.031 366.33 319.65 363.9 323.5 361.346 C334.145 354.285 342.568 347.226 352.689 336.887 C364.049 325.282 368.968 319.259 377.405 306.62 C382.871 298.431 383.999 296.035 383.996 292.62 C383.987 282.152 373.517 275.861 364.311 280.792 Z"/>
    <path fill="#262D33" d="M108.028 120.037 C106.669 120.622 105.213 121.64 104.794 122.3 C104.374 122.96 104.024 129.182 104.015 136.128 C104.004 145.618 104.341 149.038 105.371 149.893 C106.31 150.672 117.343 151.174 140.411 151.487 C163.223 151.797 175.427 152.347 178.255 153.195 C183.79 154.853 190.485 161.386 191.89 166.5 C193.727 173.186 193.266 181.055 190.75 185.98 C188.01 191.343 182.566 195.849 177.369 197.055 C175.241 197.548 158.762 197.963 140.75 197.976 C109.35 197.999 107.918 198.082 106 200 C104.067 201.933 104 203.333 104 241.929 C104 277.63 104.174 282.031 105.643 283.5 C107.047 284.904 109.381 285.096 121.726 284.821 C134.653 284.534 136.314 284.297 137.583 282.559 C138.721 281 139 275.432 139 254.309 L139 228 L160.25 227.983 C184.742 227.963 191.714 226.889 202.814 221.427 C228.033 209.017 237.524 176.914 223.759 150.581 C219.698 142.813 208.339 131.466 200.5 127.348 C187.3 120.413 184.305 119.982 145.534 119.453 C121.989 119.132 109.689 119.323 108.028 120.037 Z"/>
  </g>
</svg>