<svg width="635" height="335" viewBox="0 0 635 335" fill="none" xmlns="http://www.w3.org/2000/svg">
<g clip-path="url(#clip0_3941_87)">
<path d="M276.88 143V113.2H288C290.027 113.2 291.813 113.573 293.36 114.32C294.933 115.04 296.16 116.107 297.04 117.52C297.92 118.907 298.36 120.6 298.36 122.6C298.36 124.573 297.907 126.267 297 127.68C296.12 129.067 294.907 130.133 293.36 130.88C291.813 131.627 290.027 132 288 132H282.32V143H276.88ZM282.32 127.2H288.08C289.067 127.2 289.92 127.013 290.64 126.64C291.36 126.24 291.92 125.693 292.32 125C292.72 124.307 292.92 123.507 292.92 122.6C292.92 121.667 292.72 120.867 292.32 120.2C291.92 119.507 291.36 118.973 290.64 118.6C289.92 118.2 289.067 118 288.08 118H282.32V127.2ZM297.995 143L308.275 113.2H315.315L325.595 143H319.675L317.555 136.6H306.035L303.875 143H297.995ZM307.595 131.8H315.995L311.035 116.96H312.555L307.595 131.8ZM328.911 143V113.2H333.151L349.551 135.28L347.351 135.72V113.2H352.791V143H348.511L332.351 120.76L334.351 120.32V143H328.911ZM356.12 143L366.4 113.2H373.44L383.72 143H377.8L375.68 136.6H364.16L362 143H356.12ZM365.72 131.8H374.12L369.16 116.96H370.68L365.72 131.8ZM387.036 143V113.2H392.236L403.396 128.36H400.916L411.836 113.2H417.036V143H411.556V119.4L413.676 119.92L402.356 135H401.716L390.676 119.92L392.476 119.4V143H387.036ZM420.299 143L430.579 113.2H437.619L447.899 143H441.979L439.859 136.6H428.339L426.179 143H420.299ZM429.899 131.8H438.299L433.339 116.96H434.859L429.899 131.8Z" fill="#71706F"/>
<path d="M290.88 179.48C288.747 179.48 286.773 179.093 284.96 178.32C283.173 177.547 281.6 176.467 280.24 175.08C278.907 173.693 277.867 172.067 277.12 170.2C276.373 168.333 276 166.293 276 164.08C276 161.867 276.36 159.827 277.08 157.96C277.827 156.067 278.867 154.44 280.2 153.08C281.56 151.693 283.147 150.627 284.96 149.88C286.773 149.107 288.747 148.72 290.88 148.72C293.013 148.72 294.92 149.08 296.6 149.8C298.307 150.52 299.747 151.48 300.92 152.68C302.093 153.853 302.933 155.147 303.44 156.56L298.56 158.84C298 157.347 297.053 156.12 295.72 155.16C294.387 154.173 292.773 153.68 290.88 153.68C289.013 153.68 287.36 154.12 285.92 155C284.507 155.88 283.4 157.093 282.6 158.64C281.827 160.187 281.44 162 281.44 164.08C281.44 166.16 281.827 167.987 282.6 169.56C283.4 171.107 284.507 172.32 285.92 173.2C287.36 174.08 289.013 174.52 290.88 174.52C292.773 174.52 294.387 174.04 295.72 173.08C297.053 172.093 298 170.853 298.56 169.36L303.44 171.64C302.933 173.053 302.093 174.36 300.92 175.56C299.747 176.733 298.307 177.68 296.6 178.4C294.92 179.12 293.013 179.48 290.88 179.48ZM322.537 179.48C320.35 179.48 318.31 179.093 316.417 178.32C314.523 177.547 312.87 176.467 311.457 175.08C310.043 173.693 308.937 172.067 308.137 170.2C307.363 168.307 306.977 166.267 306.977 164.08C306.977 161.867 307.363 159.827 308.137 157.96C308.91 156.093 310.003 154.467 311.417 153.08C312.83 151.693 314.483 150.627 316.377 149.88C318.27 149.107 320.323 148.72 322.537 148.72C324.75 148.72 326.803 149.107 328.697 149.88C330.59 150.653 332.243 151.733 333.657 153.12C335.07 154.48 336.163 156.093 336.937 157.96C337.737 159.827 338.137 161.867 338.137 164.08C338.137 166.267 337.737 168.307 336.937 170.2C336.137 172.067 335.03 173.693 333.617 175.08C332.203 176.467 330.55 177.547 328.657 178.32C326.79 179.093 324.75 179.48 322.537 179.48ZM322.537 174.52C324.003 174.52 325.35 174.267 326.577 173.76C327.803 173.227 328.87 172.493 329.777 171.56C330.71 170.627 331.417 169.52 331.897 168.24C332.403 166.96 332.657 165.573 332.657 164.08C332.657 162.587 332.403 161.213 331.897 159.96C331.417 158.68 330.71 157.573 329.777 156.64C328.87 155.68 327.803 154.947 326.577 154.44C325.35 153.933 324.003 153.68 322.537 153.68C321.097 153.68 319.763 153.933 318.537 154.44C317.31 154.947 316.23 155.68 315.297 156.64C314.39 157.573 313.683 158.68 313.177 159.96C312.67 161.213 312.417 162.587 312.417 164.08C312.417 165.573 312.67 166.96 313.177 168.24C313.683 169.52 314.39 170.627 315.297 171.56C316.23 172.493 317.31 173.227 318.537 173.76C319.763 174.267 321.097 174.52 322.537 174.52ZM342.974 179V149.2H348.414V174.2H361.174V179H342.974ZM364.693 179V149.2H370.133V174.2H382.893V179H364.693ZM386.411 179V149.2H406.211V154H391.851V161.64H405.411V166.44H391.851V174.2H406.211V179H386.411ZM424.2 179.48C422.067 179.48 420.094 179.093 418.28 178.32C416.494 177.547 414.92 176.467 413.56 175.08C412.227 173.693 411.187 172.067 410.44 170.2C409.694 168.333 409.32 166.293 409.32 164.08C409.32 161.867 409.68 159.827 410.4 157.96C411.147 156.067 412.187 154.44 413.52 153.08C414.88 151.693 416.467 150.627 418.28 149.88C420.094 149.107 422.067 148.72 424.2 148.72C426.334 148.72 428.24 149.08 429.92 149.8C431.627 150.52 433.067 151.48 434.24 152.68C435.414 153.853 436.254 155.147 436.76 156.56L431.88 158.84C431.32 157.347 430.374 156.12 429.04 155.16C427.707 154.173 426.094 153.68 424.2 153.68C422.334 153.68 420.68 154.12 419.24 155C417.827 155.88 416.72 157.093 415.92 158.64C415.147 160.187 414.76 162 414.76 164.08C414.76 166.16 415.147 167.987 415.92 169.56C416.72 171.107 417.827 172.32 419.24 173.2C420.68 174.08 422.334 174.52 424.2 174.52C426.094 174.52 427.707 174.04 429.04 173.08C430.374 172.093 431.32 170.853 431.88 169.36L436.76 171.64C436.254 173.053 435.414 174.36 434.24 175.56C433.067 176.733 431.627 177.68 429.92 178.4C428.24 179.12 426.334 179.48 424.2 179.48ZM446.457 179V154H438.737V149.2H459.537V154H451.937V179H446.457ZM476.326 179.48C474.139 179.48 472.099 179.093 470.206 178.32C468.312 177.547 466.659 176.467 465.246 175.08C463.832 173.693 462.726 172.067 461.926 170.2C461.152 168.307 460.766 166.267 460.766 164.08C460.766 161.867 461.152 159.827 461.926 157.96C462.699 156.093 463.792 154.467 465.206 153.08C466.619 151.693 468.272 150.627 470.166 149.88C472.059 149.107 474.112 148.72 476.326 148.72C478.539 148.72 480.592 149.107 482.486 149.88C484.379 150.653 486.032 151.733 487.446 153.12C488.859 154.48 489.952 156.093 490.726 157.96C491.526 159.827 491.926 161.867 491.926 164.08C491.926 166.267 491.526 168.307 490.726 170.2C489.926 172.067 488.819 173.693 487.406 175.08C485.992 176.467 484.339 177.547 482.446 178.32C480.579 179.093 478.539 179.48 476.326 179.48ZM476.326 174.52C477.792 174.52 479.139 174.267 480.366 173.76C481.592 173.227 482.659 172.493 483.566 171.56C484.499 170.627 485.206 169.52 485.686 168.24C486.192 166.96 486.446 165.573 486.446 164.08C486.446 162.587 486.192 161.213 485.686 159.96C485.206 158.68 484.499 157.573 483.566 156.64C482.659 155.68 481.592 154.947 480.366 154.44C479.139 153.933 477.792 153.68 476.326 153.68C474.886 153.68 473.552 153.933 472.326 154.44C471.099 154.947 470.019 155.68 469.086 156.64C468.179 157.573 467.472 158.68 466.966 159.96C466.459 161.213 466.206 162.587 466.206 164.08C466.206 165.573 466.459 166.96 466.966 168.24C467.472 169.52 468.179 170.627 469.086 171.56C470.019 172.493 471.099 173.227 472.326 173.76C473.552 174.267 474.886 174.52 476.326 174.52ZM496.763 179V149.2H507.843C509.869 149.2 511.656 149.573 513.203 150.32C514.776 151.04 516.003 152.107 516.883 153.52C517.763 154.907 518.203 156.6 518.203 158.6C518.203 160.653 517.709 162.4 516.723 163.84C515.763 165.28 514.456 166.347 512.803 167.04L519.643 179H513.483L506.163 165.92L509.683 168H502.203V179H496.763ZM502.203 163.2H507.923C508.909 163.2 509.763 163.013 510.483 162.64C511.203 162.24 511.763 161.693 512.163 161C512.563 160.307 512.763 159.507 512.763 158.6C512.763 157.667 512.563 156.867 512.163 156.2C511.763 155.507 511.203 154.973 510.483 154.6C509.763 154.2 508.909 154 507.923 154H502.203V163.2ZM533.848 179.48C531.955 179.48 530.195 179.133 528.568 178.44C526.968 177.747 525.581 176.787 524.408 175.56C523.261 174.307 522.421 172.853 521.888 171.2L526.408 169.24C527.128 170.947 528.168 172.293 529.528 173.28C530.888 174.24 532.421 174.72 534.128 174.72C535.088 174.72 535.915 174.573 536.608 174.28C537.328 173.96 537.875 173.533 538.248 173C538.648 172.467 538.848 171.827 538.848 171.08C538.848 170.2 538.581 169.48 538.048 168.92C537.541 168.333 536.768 167.88 535.728 167.56L530.008 165.72C527.688 165 525.941 163.92 524.768 162.48C523.595 161.04 523.008 159.347 523.008 157.4C523.008 155.693 523.421 154.187 524.248 152.88C525.101 151.573 526.275 150.56 527.768 149.84C529.288 149.093 531.021 148.72 532.968 148.72C534.755 148.72 536.395 149.04 537.888 149.68C539.381 150.293 540.661 151.16 541.728 152.28C542.821 153.373 543.635 154.667 544.168 156.16L539.688 158.16C539.101 156.667 538.221 155.52 537.048 154.72C535.875 153.893 534.515 153.48 532.968 153.48C532.061 153.48 531.261 153.64 530.568 153.96C529.875 154.253 529.328 154.68 528.928 155.24C528.555 155.773 528.368 156.413 528.368 157.16C528.368 157.987 528.635 158.72 529.168 159.36C529.701 159.973 530.515 160.453 531.608 160.8L537.088 162.52C539.461 163.293 541.235 164.36 542.408 165.72C543.608 167.08 544.208 168.76 544.208 170.76C544.208 172.467 543.768 173.973 542.888 175.28C542.008 176.587 540.795 177.613 539.248 178.36C537.701 179.107 535.901 179.48 533.848 179.48Z" fill="#EA6A1C"/>
<path d="M269 186L592.097 186" stroke="#71706F" stroke-width="0.5" stroke-linecap="round" stroke-linejoin="round"/>
<path d="M278.584 205V193.08H285.944V193.8H279.384V198.664H285.624V199.384H279.384V204.28H285.944V205H278.584ZM287.18 205L290.172 200.792L287.212 196.584H288.124L290.94 200.584H290.316L293.116 196.584H294.044L291.084 200.792L294.06 205H293.132L290.316 201H290.94L288.092 205H287.18ZM295.814 208.2V196.584H296.534V198.968L296.406 198.696C296.716 198.003 297.185 197.448 297.814 197.032C298.454 196.605 299.18 196.392 299.99 196.392C300.78 196.392 301.484 196.584 302.102 196.968C302.732 197.352 303.228 197.88 303.59 198.552C303.953 199.213 304.134 199.96 304.134 200.792C304.134 201.624 303.953 202.371 303.59 203.032C303.228 203.693 302.732 204.221 302.102 204.616C301.484 205 300.78 205.192 299.99 205.192C299.18 205.192 298.454 204.984 297.814 204.568C297.185 204.141 296.716 203.581 296.406 202.888L296.534 202.616V208.2H295.814ZM299.99 204.472C300.641 204.472 301.217 204.312 301.718 203.992C302.23 203.672 302.63 203.235 302.918 202.68C303.217 202.125 303.366 201.496 303.366 200.792C303.366 200.088 303.217 199.459 302.918 198.904C302.63 198.349 302.23 197.912 301.718 197.592C301.217 197.272 300.641 197.112 299.99 197.112C299.35 197.112 298.769 197.272 298.246 197.592C297.734 197.912 297.329 198.349 297.03 198.904C296.732 199.448 296.582 200.077 296.582 200.792C296.582 201.496 296.732 202.125 297.03 202.68C297.329 203.235 297.734 203.672 298.246 203.992C298.769 204.312 299.35 204.472 299.99 204.472ZM310.484 205.192C309.684 205.192 308.964 205 308.324 204.616C307.684 204.221 307.177 203.693 306.804 203.032C306.43 202.36 306.243 201.613 306.243 200.792C306.243 199.96 306.425 199.213 306.788 198.552C307.15 197.88 307.636 197.352 308.244 196.968C308.862 196.584 309.556 196.392 310.324 196.392C310.868 196.392 311.374 196.493 311.844 196.696C312.313 196.899 312.718 197.181 313.06 197.544C313.412 197.907 313.684 198.333 313.876 198.824C314.068 199.304 314.164 199.827 314.164 200.392C314.164 200.499 314.158 200.6 314.148 200.696C314.148 200.792 314.137 200.899 314.116 201.016H306.612V200.376H313.7L313.428 200.584C313.46 199.923 313.342 199.331 313.076 198.808C312.809 198.275 312.436 197.853 311.956 197.544C311.476 197.224 310.932 197.064 310.324 197.064C309.694 197.064 309.124 197.229 308.612 197.56C308.11 197.891 307.71 198.339 307.412 198.904C307.113 199.459 306.964 200.088 306.964 200.792C306.964 201.496 307.118 202.131 307.428 202.696C307.737 203.261 308.153 203.709 308.676 204.04C309.209 204.36 309.812 204.52 310.484 204.52C311.092 204.52 311.641 204.376 312.132 204.088C312.622 203.8 313.017 203.395 313.316 202.872L313.924 203.192C313.721 203.597 313.444 203.955 313.092 204.264C312.74 204.563 312.34 204.792 311.892 204.952C311.454 205.112 310.985 205.192 310.484 205.192ZM316.627 205V196.584H317.347V198.36L317.155 198.28C317.315 197.715 317.635 197.277 318.115 196.968C318.595 196.648 319.149 196.488 319.779 196.488H320.307V197.208H319.763C318.995 197.208 318.397 197.459 317.971 197.96C317.555 198.461 317.347 199.101 317.347 199.88V205H316.627ZM324.976 205.096C324.326 205.096 323.824 204.92 323.472 204.568C323.12 204.216 322.944 203.688 322.944 202.984V197.224H321.344V196.584H322.144C322.422 196.584 322.624 196.515 322.752 196.376C322.88 196.237 322.944 196.019 322.944 195.72V194.6H323.664V196.584H325.488V197.224H323.664V202.984C323.664 203.176 323.691 203.384 323.744 203.608C323.808 203.832 323.936 204.024 324.128 204.184C324.331 204.333 324.635 204.408 325.04 204.408C325.126 204.408 325.232 204.403 325.36 204.392C325.488 204.381 325.59 204.371 325.664 204.36V205C325.558 205.032 325.43 205.053 325.28 205.064C325.142 205.085 325.04 205.096 324.976 205.096ZM331.702 205.192C330.902 205.192 330.182 205 329.542 204.616C328.902 204.232 328.396 203.709 328.022 203.048C327.649 202.376 327.462 201.624 327.462 200.792C327.462 199.949 327.649 199.197 328.022 198.536C328.396 197.875 328.902 197.352 329.542 196.968C330.182 196.584 330.902 196.392 331.702 196.392C332.513 196.392 333.233 196.584 333.862 196.968C334.502 197.352 335.009 197.875 335.382 198.536C335.756 199.197 335.942 199.949 335.942 200.792C335.942 201.624 335.756 202.376 335.382 203.048C335.009 203.709 334.502 204.232 333.862 204.616C333.233 205 332.513 205.192 331.702 205.192ZM331.702 204.504C332.353 204.504 332.94 204.344 333.462 204.024C333.985 203.693 334.401 203.245 334.71 202.68C335.02 202.115 335.174 201.485 335.174 200.792C335.174 200.088 335.02 199.459 334.71 198.904C334.412 198.339 334.001 197.896 333.478 197.576C332.956 197.245 332.364 197.08 331.702 197.08C331.052 197.08 330.46 197.245 329.926 197.576C329.404 197.896 328.988 198.339 328.678 198.904C328.38 199.459 328.23 200.088 328.23 200.792C328.23 201.485 328.385 202.115 328.694 202.68C329.004 203.245 329.42 203.693 329.942 204.024C330.465 204.344 331.052 204.504 331.702 204.504ZM341.16 205.192C340.413 205.192 339.752 205.011 339.176 204.648C338.6 204.275 338.168 203.763 337.88 203.112L338.552 202.808C338.829 203.341 339.192 203.757 339.64 204.056C340.099 204.355 340.605 204.504 341.16 204.504C341.757 204.504 342.259 204.355 342.664 204.056C343.08 203.757 343.288 203.363 343.288 202.872C343.288 202.616 343.229 202.387 343.112 202.184C342.995 201.981 342.819 201.805 342.584 201.656C342.36 201.496 342.083 201.373 341.752 201.288L340.36 200.904C339.677 200.723 339.165 200.445 338.824 200.072C338.483 199.688 338.312 199.224 338.312 198.68C338.312 198.232 338.424 197.837 338.648 197.496C338.883 197.144 339.197 196.872 339.592 196.68C339.987 196.488 340.424 196.392 340.904 196.392C341.587 196.392 342.205 196.568 342.76 196.92C343.325 197.261 343.715 197.715 343.928 198.28L343.224 198.6C342.989 198.12 342.669 197.747 342.264 197.48C341.859 197.213 341.405 197.08 340.904 197.08C340.371 197.08 339.928 197.229 339.576 197.528C339.224 197.827 339.048 198.205 339.048 198.664C339.048 198.899 339.101 199.112 339.208 199.304C339.315 199.485 339.475 199.645 339.688 199.784C339.901 199.923 340.163 200.035 340.472 200.12L341.88 200.52C342.573 200.712 343.107 201.011 343.48 201.416C343.853 201.811 344.04 202.285 344.04 202.84C344.04 203.288 343.912 203.693 343.656 204.056C343.4 204.408 343.053 204.685 342.616 204.888C342.189 205.091 341.704 205.192 341.16 205.192ZM352.952 205.192C352.152 205.192 351.432 205 350.792 204.616C350.152 204.221 349.646 203.693 349.272 203.032C348.899 202.36 348.712 201.613 348.712 200.792C348.712 199.96 348.894 199.213 349.256 198.552C349.619 197.88 350.104 197.352 350.712 196.968C351.331 196.584 352.024 196.392 352.792 196.392C353.336 196.392 353.843 196.493 354.312 196.696C354.782 196.899 355.187 197.181 355.528 197.544C355.88 197.907 356.152 198.333 356.344 198.824C356.536 199.304 356.632 199.827 356.632 200.392C356.632 200.499 356.627 200.6 356.616 200.696C356.616 200.792 356.606 200.899 356.584 201.016H349.08V200.376H356.168L355.896 200.584C355.928 199.923 355.811 199.331 355.544 198.808C355.278 198.275 354.904 197.853 354.424 197.544C353.944 197.224 353.4 197.064 352.792 197.064C352.163 197.064 351.592 197.229 351.08 197.56C350.579 197.891 350.179 198.339 349.88 198.904C349.582 199.459 349.432 200.088 349.432 200.792C349.432 201.496 349.587 202.131 349.896 202.696C350.206 203.261 350.622 203.709 351.144 204.04C351.678 204.36 352.28 204.52 352.952 204.52C353.56 204.52 354.11 204.376 354.6 204.088C355.091 203.8 355.486 203.395 355.784 202.872L356.392 203.192C356.19 203.597 355.912 203.955 355.56 204.264C355.208 204.563 354.808 204.792 354.36 204.952C353.923 205.112 353.454 205.192 352.952 205.192ZM359.096 205V196.584H359.816V198.36L359.624 198.28C359.794 197.715 360.13 197.261 360.632 196.92C361.144 196.568 361.736 196.392 362.408 196.392C362.973 196.392 363.496 196.52 363.976 196.776C364.456 197.032 364.84 197.395 365.128 197.864C365.426 198.323 365.576 198.861 365.576 199.48V205H364.856V199.56C364.856 199.048 364.744 198.611 364.52 198.248C364.296 197.875 363.992 197.587 363.608 197.384C363.234 197.181 362.813 197.08 362.344 197.08C361.81 197.08 361.352 197.208 360.968 197.464C360.594 197.709 360.306 198.045 360.104 198.472C359.912 198.888 359.816 199.357 359.816 199.88V205H359.096ZM370.783 205V196.584H371.503V198.36L371.311 198.28C371.471 197.715 371.791 197.277 372.271 196.968C372.751 196.648 373.306 196.488 373.935 196.488H374.463V197.208H373.919C373.151 197.208 372.554 197.459 372.127 197.96C371.711 198.461 371.503 199.101 371.503 199.88V205H370.783ZM380.109 205.192C379.309 205.192 378.589 205 377.949 204.616C377.309 204.221 376.802 203.693 376.429 203.032C376.055 202.36 375.868 201.613 375.868 200.792C375.868 199.96 376.05 199.213 376.413 198.552C376.775 197.88 377.261 197.352 377.869 196.968C378.487 196.584 379.181 196.392 379.949 196.392C380.493 196.392 380.999 196.493 381.469 196.696C381.938 196.899 382.343 197.181 382.685 197.544C383.037 197.907 383.309 198.333 383.501 198.824C383.693 199.304 383.789 199.827 383.789 200.392C383.789 200.499 383.783 200.6 383.773 200.696C383.773 200.792 383.762 200.899 383.741 201.016H376.237V200.376H383.325L383.053 200.584C383.085 199.923 382.967 199.331 382.701 198.808C382.434 198.275 382.061 197.853 381.581 197.544C381.101 197.224 380.557 197.064 379.949 197.064C379.319 197.064 378.749 197.229 378.237 197.56C377.735 197.891 377.335 198.339 377.037 198.904C376.738 199.459 376.589 200.088 376.589 200.792C376.589 201.496 376.743 202.131 377.053 202.696C377.362 203.261 377.778 203.709 378.301 204.04C378.834 204.36 379.437 204.52 380.109 204.52C380.717 204.52 381.266 204.376 381.757 204.088C382.247 203.8 382.642 203.395 382.941 202.872L383.549 203.192C383.346 203.597 383.069 203.955 382.717 204.264C382.365 204.563 381.965 204.792 381.517 204.952C381.079 205.112 380.61 205.192 380.109 205.192ZM390.092 205.192C389.313 205.192 388.604 205 387.964 204.616C387.334 204.232 386.833 203.709 386.46 203.048C386.086 202.376 385.9 201.624 385.9 200.792C385.9 199.949 386.086 199.197 386.46 198.536C386.833 197.875 387.334 197.352 387.964 196.968C388.604 196.584 389.313 196.392 390.092 196.392C390.614 196.392 391.094 196.477 391.532 196.648C391.98 196.819 392.369 197.053 392.7 197.352C393.041 197.651 393.308 197.992 393.5 198.376L392.892 198.712C392.593 198.179 392.204 197.773 391.724 197.496C391.244 197.208 390.7 197.064 390.092 197.064C389.441 197.064 388.854 197.219 388.332 197.528C387.809 197.837 387.393 198.275 387.084 198.84C386.774 199.395 386.62 200.045 386.62 200.792C386.62 201.539 386.774 202.195 387.084 202.76C387.393 203.315 387.809 203.747 388.332 204.056C388.854 204.365 389.441 204.52 390.092 204.52C390.7 204.52 391.244 204.376 391.724 204.088C392.204 203.8 392.593 203.395 392.892 202.872L393.5 203.192C393.308 203.565 393.041 203.907 392.7 204.216C392.369 204.515 391.98 204.755 391.532 204.936C391.094 205.107 390.614 205.192 390.092 205.192ZM398.963 205.192C398.408 205.192 397.891 205.069 397.411 204.824C396.931 204.579 396.541 204.221 396.243 203.752C395.944 203.283 395.795 202.707 395.795 202.024V196.584H396.515V202.024C396.515 202.557 396.627 203.011 396.851 203.384C397.085 203.757 397.395 204.04 397.779 204.232C398.163 204.413 398.579 204.504 399.027 204.504C399.571 204.504 400.029 204.381 400.403 204.136C400.787 203.88 401.075 203.539 401.267 203.112C401.459 202.685 401.555 202.216 401.555 201.704V196.584H402.275V205H401.555V203.224L401.747 203.304C401.576 203.859 401.24 204.312 400.739 204.664C400.248 205.016 399.656 205.192 398.963 205.192ZM405.096 208.2V196.584H405.816V198.968L405.688 198.696C405.997 198.003 406.466 197.448 407.096 197.032C407.736 196.605 408.461 196.392 409.272 196.392C410.061 196.392 410.765 196.584 411.384 196.968C412.013 197.352 412.509 197.88 412.872 198.552C413.234 199.213 413.416 199.96 413.416 200.792C413.416 201.624 413.234 202.371 412.872 203.032C412.509 203.693 412.013 204.221 411.384 204.616C410.765 205 410.061 205.192 409.272 205.192C408.461 205.192 407.736 204.984 407.096 204.568C406.466 204.141 405.997 203.581 405.688 202.888L405.816 202.616V208.2H405.096ZM409.272 204.472C409.922 204.472 410.498 204.312 411 203.992C411.512 203.672 411.911 203.235 412.2 202.68C412.498 202.125 412.648 201.496 412.648 200.792C412.648 200.088 412.498 199.459 412.2 198.904C411.911 198.349 411.512 197.912 411 197.592C410.498 197.272 409.922 197.112 409.272 197.112C408.632 197.112 408.05 197.272 407.528 197.592C407.016 197.912 406.61 198.349 406.312 198.904C406.013 199.448 405.864 200.077 405.864 200.792C405.864 201.496 406.013 202.125 406.312 202.68C406.61 203.235 407.016 203.672 407.528 203.992C408.05 204.312 408.632 204.472 409.272 204.472ZM419.765 205.192C418.965 205.192 418.245 205 417.605 204.616C416.965 204.221 416.458 203.693 416.085 203.032C415.711 202.36 415.525 201.613 415.525 200.792C415.525 199.96 415.706 199.213 416.069 198.552C416.431 197.88 416.917 197.352 417.525 196.968C418.143 196.584 418.837 196.392 419.605 196.392C420.149 196.392 420.655 196.493 421.125 196.696C421.594 196.899 421.999 197.181 422.341 197.544C422.693 197.907 422.965 198.333 423.157 198.824C423.349 199.304 423.445 199.827 423.445 200.392C423.445 200.499 423.439 200.6 423.429 200.696C423.429 200.792 423.418 200.899 423.397 201.016H415.893V200.376H422.981L422.709 200.584C422.741 199.923 422.623 199.331 422.357 198.808C422.09 198.275 421.717 197.853 421.237 197.544C420.757 197.224 420.213 197.064 419.605 197.064C418.975 197.064 418.405 197.229 417.893 197.56C417.391 197.891 416.991 198.339 416.693 198.904C416.394 199.459 416.245 200.088 416.245 200.792C416.245 201.496 416.399 202.131 416.709 202.696C417.018 203.261 417.434 203.709 417.957 204.04C418.49 204.36 419.093 204.52 419.765 204.52C420.373 204.52 420.922 204.376 421.413 204.088C421.903 203.8 422.298 203.395 422.597 202.872L423.205 203.192C423.002 203.597 422.725 203.955 422.373 204.264C422.021 204.563 421.621 204.792 421.173 204.952C420.735 205.112 420.266 205.192 419.765 205.192ZM425.908 205V196.584H426.628V198.36L426.436 198.28C426.596 197.715 426.916 197.277 427.396 196.968C427.876 196.648 428.431 196.488 429.06 196.488H429.588V197.208H429.044C428.276 197.208 427.679 197.459 427.252 197.96C426.836 198.461 426.628 199.101 426.628 199.88V205H425.908ZM433.73 205.192C433.218 205.192 432.754 205.096 432.338 204.904C431.932 204.701 431.607 204.424 431.362 204.072C431.116 203.709 430.993 203.293 430.993 202.824C430.993 202.44 431.079 202.072 431.25 201.72C431.431 201.357 431.719 201.043 432.114 200.776C432.519 200.509 433.058 200.323 433.73 200.216L437.25 199.624V200.312L433.97 200.856C433.138 200.995 432.556 201.24 432.226 201.592C431.895 201.944 431.73 202.344 431.73 202.792C431.73 203.325 431.927 203.747 432.322 204.056C432.716 204.365 433.207 204.52 433.794 204.52C434.444 204.52 435.004 204.365 435.474 204.056C435.954 203.747 436.327 203.341 436.594 202.84C436.86 202.328 436.994 201.779 436.994 201.192V199.16C436.994 198.531 436.775 198.029 436.338 197.656C435.911 197.272 435.34 197.08 434.626 197.08C434.082 197.08 433.58 197.213 433.122 197.48C432.663 197.747 432.306 198.099 432.049 198.536L431.41 198.2C431.57 197.88 431.804 197.587 432.114 197.32C432.434 197.043 432.807 196.819 433.234 196.648C433.66 196.477 434.124 196.392 434.626 196.392C435.234 196.392 435.767 196.509 436.226 196.744C436.695 196.979 437.058 197.304 437.314 197.72C437.58 198.136 437.714 198.616 437.714 199.16V205H436.994V203.16H437.058C436.919 203.512 436.69 203.843 436.37 204.152C436.05 204.461 435.666 204.712 435.218 204.904C434.77 205.096 434.274 205.192 433.73 205.192ZM444.373 205.192C443.594 205.192 442.885 205 442.245 204.616C441.616 204.232 441.114 203.709 440.741 203.048C440.368 202.376 440.181 201.624 440.181 200.792C440.181 199.949 440.368 199.197 440.741 198.536C441.114 197.875 441.616 197.352 442.245 196.968C442.885 196.584 443.594 196.392 444.373 196.392C444.896 196.392 445.376 196.477 445.813 196.648C446.261 196.819 446.65 197.053 446.981 197.352C447.322 197.651 447.589 197.992 447.781 198.376L447.173 198.712C446.874 198.179 446.485 197.773 446.005 197.496C445.525 197.208 444.981 197.064 444.373 197.064C443.722 197.064 443.136 197.219 442.613 197.528C442.09 197.837 441.674 198.275 441.365 198.84C441.056 199.395 440.901 200.045 440.901 200.792C440.901 201.539 441.056 202.195 441.365 202.76C441.674 203.315 442.09 203.747 442.613 204.056C443.136 204.365 443.722 204.52 444.373 204.52C444.981 204.52 445.525 204.376 446.005 204.088C446.485 203.8 446.874 203.395 447.173 202.872L447.781 203.192C447.589 203.565 447.322 203.907 446.981 204.216C446.65 204.515 446.261 204.755 445.813 204.936C445.376 205.107 444.896 205.192 444.373 205.192ZM450.252 205V196.584H450.972V205H450.252ZM450.252 194.84V193.08H450.972V194.84H450.252ZM457.671 205.192C456.871 205.192 456.151 205 455.511 204.616C454.871 204.232 454.364 203.709 453.991 203.048C453.618 202.376 453.431 201.624 453.431 200.792C453.431 199.949 453.618 199.197 453.991 198.536C454.364 197.875 454.871 197.352 455.511 196.968C456.151 196.584 456.871 196.392 457.671 196.392C458.482 196.392 459.202 196.584 459.831 196.968C460.471 197.352 460.978 197.875 461.351 198.536C461.724 199.197 461.911 199.949 461.911 200.792C461.911 201.624 461.724 202.376 461.351 203.048C460.978 203.709 460.471 204.232 459.831 204.616C459.202 205 458.482 205.192 457.671 205.192ZM457.671 204.504C458.322 204.504 458.908 204.344 459.431 204.024C459.954 203.693 460.37 203.245 460.679 202.68C460.988 202.115 461.143 201.485 461.143 200.792C461.143 200.088 460.988 199.459 460.679 198.904C460.38 198.339 459.97 197.896 459.447 197.576C458.924 197.245 458.332 197.08 457.671 197.08C457.02 197.08 456.428 197.245 455.895 197.576C455.372 197.896 454.956 198.339 454.647 198.904C454.348 199.459 454.199 200.088 454.199 200.792C454.199 201.485 454.354 202.115 454.663 202.68C454.972 203.245 455.388 203.693 455.911 204.024C456.434 204.344 457.02 204.504 457.671 204.504ZM457.303 194.76L458.775 192.36H459.751L458.023 194.76H457.303ZM464.377 205V196.584H465.097V198.36L464.905 198.28C465.075 197.715 465.411 197.261 465.913 196.92C466.425 196.568 467.017 196.392 467.689 196.392C468.254 196.392 468.777 196.52 469.257 196.776C469.737 197.032 470.121 197.395 470.409 197.864C470.707 198.323 470.857 198.861 470.857 199.48V205H470.137V199.56C470.137 199.048 470.025 198.611 469.801 198.248C469.577 197.875 469.273 197.587 468.889 197.384C468.515 197.181 468.094 197.08 467.625 197.08C467.091 197.08 466.633 197.208 466.249 197.464C465.875 197.709 465.587 198.045 465.385 198.472C465.193 198.888 465.097 199.357 465.097 199.88V205H464.377ZM479.856 205.192C479.078 205.192 478.374 205 477.744 204.616C477.115 204.221 476.619 203.693 476.256 203.032C475.894 202.371 475.712 201.624 475.712 200.792C475.712 199.96 475.894 199.213 476.256 198.552C476.619 197.88 477.115 197.352 477.744 196.968C478.374 196.584 479.078 196.392 479.856 196.392C480.667 196.392 481.392 196.605 482.032 197.032C482.672 197.448 483.142 198.003 483.44 198.696L483.312 198.968V192.888H484.032V205H483.312V202.616L483.44 202.888C483.142 203.581 482.672 204.141 482.032 204.568C481.392 204.984 480.667 205.192 479.856 205.192ZM479.856 204.472C480.507 204.472 481.088 204.312 481.6 203.992C482.112 203.672 482.518 203.235 482.816 202.68C483.115 202.125 483.264 201.496 483.264 200.792C483.264 200.077 483.115 199.448 482.816 198.904C482.518 198.349 482.112 197.912 481.6 197.592C481.088 197.272 480.507 197.112 479.856 197.112C479.206 197.112 478.624 197.272 478.112 197.592C477.611 197.912 477.211 198.349 476.912 198.904C476.624 199.459 476.48 200.088 476.48 200.792C476.48 201.496 476.624 202.125 476.912 202.68C477.211 203.235 477.611 203.672 478.112 203.992C478.624 204.312 479.206 204.472 479.856 204.472ZM490.734 205.192C489.934 205.192 489.214 205 488.574 204.616C487.934 204.221 487.427 203.693 487.054 203.032C486.68 202.36 486.493 201.613 486.493 200.792C486.493 199.96 486.675 199.213 487.038 198.552C487.4 197.88 487.886 197.352 488.494 196.968C489.112 196.584 489.806 196.392 490.574 196.392C491.118 196.392 491.624 196.493 492.094 196.696C492.563 196.899 492.968 197.181 493.31 197.544C493.662 197.907 493.934 198.333 494.126 198.824C494.318 199.304 494.414 199.827 494.414 200.392C494.414 200.499 494.408 200.6 494.398 200.696C494.398 200.792 494.387 200.899 494.366 201.016H486.862V200.376H493.95L493.678 200.584C493.71 199.923 493.592 199.331 493.326 198.808C493.059 198.275 492.686 197.853 492.206 197.544C491.726 197.224 491.182 197.064 490.574 197.064C489.944 197.064 489.374 197.229 488.862 197.56C488.36 197.891 487.96 198.339 487.662 198.904C487.363 199.459 487.214 200.088 487.214 200.792C487.214 201.496 487.368 202.131 487.678 202.696C487.987 203.261 488.403 203.709 488.926 204.04C489.459 204.36 490.062 204.52 490.734 204.52C491.342 204.52 491.891 204.376 492.382 204.088C492.872 203.8 493.267 203.395 493.566 202.872L494.174 203.192C493.971 203.597 493.694 203.955 493.342 204.264C492.99 204.563 492.59 204.792 492.142 204.952C491.704 205.112 491.235 205.192 490.734 205.192ZM501.823 205.192C501.311 205.192 500.847 205.096 500.431 204.904C500.026 204.701 499.701 204.424 499.455 204.072C499.21 203.709 499.087 203.293 499.087 202.824C499.087 202.44 499.173 202.072 499.343 201.72C499.525 201.357 499.813 201.043 500.207 200.776C500.613 200.509 501.151 200.323 501.823 200.216L505.343 199.624V200.312L502.063 200.856C501.231 200.995 500.65 201.24 500.319 201.592C499.989 201.944 499.823 202.344 499.823 202.792C499.823 203.325 500.021 203.747 500.415 204.056C500.81 204.365 501.301 204.52 501.887 204.52C502.538 204.52 503.098 204.365 503.567 204.056C504.047 203.747 504.421 203.341 504.687 202.84C504.954 202.328 505.087 201.779 505.087 201.192V199.16C505.087 198.531 504.869 198.029 504.431 197.656C504.005 197.272 503.434 197.08 502.719 197.08C502.175 197.08 501.674 197.213 501.215 197.48C500.757 197.747 500.399 198.099 500.143 198.536L499.503 198.2C499.663 197.88 499.898 197.587 500.207 197.32C500.527 197.043 500.901 196.819 501.327 196.648C501.754 196.477 502.218 196.392 502.719 196.392C503.327 196.392 503.861 196.509 504.319 196.744C504.789 196.979 505.151 197.304 505.407 197.72C505.674 198.136 505.807 198.616 505.807 199.16V205H505.087V203.16H505.151C505.013 203.512 504.783 203.843 504.463 204.152C504.143 204.461 503.759 204.712 503.311 204.904C502.863 205.096 502.367 205.192 501.823 205.192ZM512.467 205.192C511.688 205.192 510.979 205 510.339 204.616C509.709 204.232 509.208 203.709 508.835 203.048C508.461 202.376 508.275 201.624 508.275 200.792C508.275 199.949 508.461 199.197 508.835 198.536C509.208 197.875 509.709 197.352 510.339 196.968C510.979 196.584 511.688 196.392 512.467 196.392C512.989 196.392 513.469 196.477 513.907 196.648C514.355 196.819 514.744 197.053 515.075 197.352C515.416 197.651 515.683 197.992 515.875 198.376L515.267 198.712C514.968 198.179 514.579 197.773 514.099 197.496C513.619 197.208 513.075 197.064 512.467 197.064C511.816 197.064 511.229 197.219 510.707 197.528C510.184 197.837 509.768 198.275 509.459 198.84C509.149 199.395 508.995 200.045 508.995 200.792C508.995 201.539 509.149 202.195 509.459 202.76C509.768 203.315 510.184 203.747 510.707 204.056C511.229 204.365 511.816 204.52 512.467 204.52C513.075 204.52 513.619 204.376 514.099 204.088C514.579 203.8 514.968 203.395 515.267 202.872L515.875 203.192C515.683 203.565 515.416 203.907 515.075 204.216C514.744 204.515 514.355 204.755 513.907 204.936C513.469 205.107 512.989 205.192 512.467 205.192ZM521.258 205.096C520.607 205.096 520.106 204.92 519.754 204.568C519.402 204.216 519.226 203.688 519.226 202.984V197.224H517.626V196.584H518.426C518.703 196.584 518.906 196.515 519.034 196.376C519.162 196.237 519.226 196.019 519.226 195.72V194.6H519.946V196.584H521.77V197.224H519.946V202.984C519.946 203.176 519.972 203.384 520.026 203.608C520.09 203.832 520.218 204.024 520.41 204.184C520.612 204.333 520.916 204.408 521.322 204.408C521.407 204.408 521.514 204.403 521.641 204.392C521.77 204.381 521.871 204.371 521.946 204.36V205C521.839 205.032 521.711 205.053 521.562 205.064C521.423 205.085 521.322 205.096 521.258 205.096ZM524.408 205V196.584H525.128V205H524.408ZM524.408 194.84V193.08H525.128V194.84H524.408ZM530.275 205L526.883 196.584H527.699L530.819 204.376H530.515L533.651 196.584H534.483L531.043 205H530.275ZM539.968 205.192C539.168 205.192 538.448 205 537.808 204.616C537.168 204.232 536.661 203.709 536.288 203.048C535.915 202.376 535.728 201.624 535.728 200.792C535.728 199.949 535.915 199.197 536.288 198.536C536.661 197.875 537.168 197.352 537.808 196.968C538.448 196.584 539.168 196.392 539.968 196.392C540.779 196.392 541.499 196.584 542.128 196.968C542.768 197.352 543.275 197.875 543.648 198.536C544.021 199.197 544.208 199.949 544.208 200.792C544.208 201.624 544.021 202.376 543.648 203.048C543.275 203.709 542.768 204.232 542.128 204.616C541.499 205 540.779 205.192 539.968 205.192ZM539.968 204.504C540.619 204.504 541.205 204.344 541.728 204.024C542.251 203.693 542.667 203.245 542.976 202.68C543.285 202.115 543.44 201.485 543.44 200.792C543.44 200.088 543.285 199.459 542.976 198.904C542.677 198.339 542.267 197.896 541.744 197.576C541.221 197.245 540.629 197.08 539.968 197.08C539.317 197.08 538.725 197.245 538.192 197.576C537.669 197.896 537.253 198.339 536.944 198.904C536.645 199.459 536.496 200.088 536.496 200.792C536.496 201.485 536.651 202.115 536.96 202.68C537.269 203.245 537.685 203.693 538.208 204.024C538.731 204.344 539.317 204.504 539.968 204.504ZM549.426 205.192C548.679 205.192 548.018 205.011 547.442 204.648C546.866 204.275 546.434 203.763 546.146 203.112L546.818 202.808C547.095 203.341 547.458 203.757 547.906 204.056C548.364 204.355 548.871 204.504 549.426 204.504C550.023 204.504 550.524 204.355 550.93 204.056C551.346 203.757 551.554 203.363 551.554 202.872C551.554 202.616 551.495 202.387 551.378 202.184C551.26 201.981 551.084 201.805 550.85 201.656C550.626 201.496 550.348 201.373 550.018 201.288L548.626 200.904C547.943 200.723 547.431 200.445 547.09 200.072C546.748 199.688 546.578 199.224 546.578 198.68C546.578 198.232 546.69 197.837 546.914 197.496C547.148 197.144 547.463 196.872 547.858 196.68C548.252 196.488 548.69 196.392 549.17 196.392C549.852 196.392 550.471 196.568 551.026 196.92C551.591 197.261 551.98 197.715 552.194 198.28L551.49 198.6C551.255 198.12 550.935 197.747 550.53 197.48C550.124 197.213 549.671 197.08 549.17 197.08C548.636 197.08 548.194 197.229 547.842 197.528C547.49 197.827 547.314 198.205 547.314 198.664C547.314 198.899 547.367 199.112 547.474 199.304C547.58 199.485 547.74 199.645 547.954 199.784C548.167 199.923 548.428 200.035 548.738 200.12L550.146 200.52C550.839 200.712 551.372 201.011 551.746 201.416C552.119 201.811 552.306 202.285 552.306 202.84C552.306 203.288 552.178 203.693 551.922 204.056C551.666 204.408 551.319 204.685 550.882 204.888C550.455 205.091 549.97 205.192 549.426 205.192Z" fill="#71706F"/>
<path d="M109.459 196.889C106.672 196.982 102.208 197.072 97.8076 196.912C96.2273 196.854 95 195.556 95 193.975V156.171C95 154.115 96.4824 153.087 97.9648 152.573C99.4473 152.059 120.201 152.573 132.06 152.573C143.92 152.573 143.426 128.418 133.049 128.418H97.9648C96.4824 128.418 95 127.904 95 126.876V115.056C95 113.514 96.4824 113 97.9648 113H138.978C151.826 113 159.494 129.697 157.756 143.836C156.112 157.21 151.332 168.505 134.531 168.505H112.295V193.931C112.295 195.524 111.051 196.836 109.459 196.889Z" fill="#71706F"/>
<path d="M198.517 113C204.348 113 209.568 113.972 214.176 115.916C218.856 117.86 222.817 120.452 226.057 123.692C228.608 126.244 230.579 129.019 231.97 132.018C232.61 133.398 231.934 134.99 230.562 135.65L221.191 140.165C219.581 140.941 217.67 140.129 216.805 138.564C215.397 136.02 213.441 133.834 210.937 132.008C207.553 129.416 203.412 128.12 198.517 128.12C193.765 128.12 189.588 129.236 185.988 131.468C182.388 133.7 179.58 136.796 177.564 140.756C175.62 144.644 174.648 149.216 174.648 154.472C174.648 159.728 175.62 164.336 177.564 168.296C179.58 172.256 182.388 175.352 185.988 177.584C189.588 179.816 193.765 180.932 198.517 180.932C203.412 180.932 207.553 179.672 210.937 177.152C213.443 175.272 215.4 173.051 216.809 170.489C217.67 168.923 219.581 168.111 221.191 168.887L230.562 173.401C231.934 174.062 232.61 175.654 231.97 177.035C230.579 180.033 228.608 182.809 226.057 185.36C222.817 188.6 218.856 191.192 214.176 193.136C209.568 195.08 204.348 196.052 198.517 196.052C192.757 196.052 187.392 195.008 182.424 192.92C177.528 190.832 173.244 187.916 169.572 184.172C165.9 180.428 163.021 176.036 160.933 170.996C159.265 166.827 158.288 162.337 158 157.526C159.9 153.626 160.932 148.984 161.537 144.059C161.846 141.543 161.856 138.947 161.594 136.378C163.554 131.955 166.176 128.06 169.464 124.772C173.136 121.028 177.42 118.148 182.316 116.132C187.284 114.044 192.685 113 198.517 113Z" fill="#EA6A1C"/>
<path d="M90.7601 212.5C107.269 232.357 132.158 245 160 245C195.624 245 226.414 224.303 241 194.277" stroke="#71706F" stroke-width="10" stroke-linecap="round"/>
<path d="M235.199 115.337C236.49 117.778 239.515 118.711 241.956 117.42C244.397 116.13 245.33 113.105 244.04 110.663L239.619 113L235.199 115.337ZM160 65V70C192.611 70 220.941 88.3631 235.199 115.337L239.619 113L244.04 110.663C228.118 80.5433 196.462 60 160 60V65ZM90.7601 212.5L94.6049 209.304C82.3597 194.575 75 175.653 75 155H70H65C65 178.074 73.2325 199.238 86.9152 215.696L90.7601 212.5ZM70 155H75C75 108.056 113.056 70 160 70V65V60C107.533 60 65 102.533 65 155H70Z" fill="#EA6A1C"/>
</g>
<defs>
<clipPath id="clip0_3941_87">
<rect width="635" height="335" fill="white"/>
</clipPath>
</defs>
</svg>
