<svg width="635" height="335" viewBox="0 0 635 335" fill="none" xmlns="http://www.w3.org/2000/svg">
<g clip-path="url(#clip0_4004_166)">
<path d="M277.456 152V116.24H290.8C293.232 116.24 295.376 116.688 297.232 117.584C299.12 118.448 300.592 119.728 301.648 121.424C302.704 123.088 303.232 125.12 303.232 127.52C303.232 129.888 302.688 131.92 301.6 133.616C300.544 135.28 299.088 136.56 297.232 137.456C295.376 138.352 293.232 138.8 290.8 138.8H283.984V152H277.456ZM283.984 133.04H290.896C292.08 133.04 293.104 132.816 293.968 132.368C294.832 131.888 295.504 131.232 295.984 130.4C296.464 129.568 296.704 128.608 296.704 127.52C296.704 126.4 296.464 125.44 295.984 124.64C295.504 123.808 294.832 123.168 293.968 122.72C293.104 122.24 292.08 122 290.896 122H283.984V133.04ZM302.794 152L315.13 116.24H323.578L335.914 152H328.81L326.266 144.32H312.442L309.85 152H302.794ZM314.314 138.56H324.394L318.442 120.752H320.266L314.314 138.56ZM339.894 152V116.24H344.982L364.661 142.736L362.022 143.264V116.24H368.55V152H363.414L344.022 125.312L346.422 124.784V152H339.894ZM372.544 152L384.88 116.24H393.328L405.664 152H398.56L396.016 144.32H382.192L379.6 152H372.544ZM384.064 138.56H394.144L388.192 120.752H390.016L384.064 138.56ZM409.644 152V116.24H415.884L429.276 134.432H426.3L439.404 116.24H445.644V152H439.068V123.68L441.612 124.304L428.028 142.4H427.26L414.012 124.304L416.172 123.68V152H409.644ZM449.559 152L461.895 116.24H470.343L482.679 152H475.575L473.031 144.32H459.207L456.615 152H449.559ZM461.079 138.56H471.159L465.207 120.752H467.031L461.079 138.56Z" fill="#A4A4A4"/>
<path d="M293.256 198.576C290.696 198.576 288.328 198.112 286.152 197.184C284.008 196.256 282.12 194.96 280.488 193.296C278.888 191.632 277.64 189.68 276.744 187.44C275.848 185.2 275.4 182.752 275.4 180.096C275.4 177.44 275.832 174.992 276.696 172.752C277.592 170.48 278.84 168.528 280.44 166.896C282.072 165.232 283.976 163.952 286.152 163.056C288.328 162.128 290.696 161.664 293.256 161.664C295.816 161.664 298.104 162.096 300.12 162.96C302.168 163.824 303.896 164.976 305.304 166.416C306.712 167.824 307.72 169.376 308.328 171.072L302.472 173.808C301.8 172.016 300.664 170.544 299.064 169.392C297.464 168.208 295.528 167.616 293.256 167.616C291.016 167.616 289.032 168.144 287.304 169.2C285.608 170.256 284.28 171.712 283.32 173.568C282.392 175.424 281.928 177.6 281.928 180.096C281.928 182.592 282.392 184.784 283.32 186.672C284.28 188.528 285.608 189.984 287.304 191.04C289.032 192.096 291.016 192.624 293.256 192.624C295.528 192.624 297.464 192.048 299.064 190.896C300.664 189.712 301.8 188.224 302.472 186.432L308.328 189.168C307.72 190.864 306.712 192.432 305.304 193.872C303.896 195.28 302.168 196.416 300.12 197.28C298.104 198.144 295.816 198.576 293.256 198.576ZM331.244 198.576C328.62 198.576 326.172 198.112 323.9 197.184C321.628 196.256 319.644 194.96 317.948 193.296C316.252 191.632 314.924 189.68 313.964 187.44C313.036 185.168 312.572 182.72 312.572 180.096C312.572 177.44 313.036 174.992 313.964 172.752C314.892 170.512 316.204 168.56 317.9 166.896C319.596 165.232 321.58 163.952 323.852 163.056C326.124 162.128 328.588 161.664 331.244 161.664C333.9 161.664 336.364 162.128 338.636 163.056C340.908 163.984 342.892 165.28 344.588 166.944C346.284 168.576 347.596 170.512 348.524 172.752C349.484 174.992 349.964 177.44 349.964 180.096C349.964 182.72 349.484 185.168 348.524 187.44C347.564 189.68 346.236 191.632 344.54 193.296C342.844 194.96 340.86 196.256 338.588 197.184C336.348 198.112 333.9 198.576 331.244 198.576ZM331.244 192.624C333.004 192.624 334.62 192.32 336.092 191.712C337.564 191.072 338.844 190.192 339.932 189.072C341.052 187.952 341.9 186.624 342.476 185.088C343.084 183.552 343.388 181.888 343.388 180.096C343.388 178.304 343.084 176.656 342.476 175.152C341.9 173.616 341.052 172.288 339.932 171.168C338.844 170.016 337.564 169.136 336.092 168.528C334.62 167.92 333.004 167.616 331.244 167.616C329.516 167.616 327.916 167.92 326.444 168.528C324.972 169.136 323.676 170.016 322.556 171.168C321.468 172.288 320.62 173.616 320.012 175.152C319.404 176.656 319.1 178.304 319.1 180.096C319.1 181.888 319.404 183.552 320.012 185.088C320.62 186.624 321.468 187.952 322.556 189.072C323.676 190.192 324.972 191.072 326.444 191.712C327.916 192.32 329.516 192.624 331.244 192.624ZM355.769 198V162.24H362.297V192.24H377.609V198H355.769ZM381.831 198V162.24H388.359V192.24H403.671V198H381.831ZM407.894 198V162.24H431.654V168H414.422V177.168H430.694V182.928H414.422V192.24H431.654V198H407.894ZM453.24 198.576C450.68 198.576 448.312 198.112 446.136 197.184C443.992 196.256 442.104 194.96 440.472 193.296C438.872 191.632 437.624 189.68 436.728 187.44C435.832 185.2 435.384 182.752 435.384 180.096C435.384 177.44 435.816 174.992 436.68 172.752C437.576 170.48 438.824 168.528 440.424 166.896C442.056 165.232 443.96 163.952 446.136 163.056C448.312 162.128 450.68 161.664 453.24 161.664C455.8 161.664 458.088 162.096 460.104 162.96C462.152 163.824 463.88 164.976 465.288 166.416C466.696 167.824 467.704 169.376 468.312 171.072L462.456 173.808C461.784 172.016 460.648 170.544 459.048 169.392C457.448 168.208 455.512 167.616 453.24 167.616C451 167.616 449.016 168.144 447.288 169.2C445.592 170.256 444.264 171.712 443.304 173.568C442.376 175.424 441.912 177.6 441.912 180.096C441.912 182.592 442.376 184.784 443.304 186.672C444.264 188.528 445.592 189.984 447.288 191.04C449.016 192.096 451 192.624 453.24 192.624C455.512 192.624 457.448 192.048 459.048 190.896C460.648 189.712 461.784 188.224 462.456 186.432L468.312 189.168C467.704 190.864 466.696 192.432 465.288 193.872C463.88 195.28 462.152 196.416 460.104 197.28C458.088 198.144 455.8 198.576 453.24 198.576ZM479.948 198V168H470.684V162.24H495.644V168H486.524V198H479.948ZM515.791 198.576C513.167 198.576 510.719 198.112 508.447 197.184C506.175 196.256 504.191 194.96 502.495 193.296C500.799 191.632 499.471 189.68 498.511 187.44C497.583 185.168 497.119 182.72 497.119 180.096C497.119 177.44 497.583 174.992 498.511 172.752C499.439 170.512 500.751 168.56 502.447 166.896C504.143 165.232 506.127 163.952 508.399 163.056C510.671 162.128 513.135 161.664 515.791 161.664C518.447 161.664 520.911 162.128 523.183 163.056C525.455 163.984 527.439 165.28 529.135 166.944C530.831 168.576 532.143 170.512 533.071 172.752C534.031 174.992 534.511 177.44 534.511 180.096C534.511 182.72 534.031 185.168 533.071 187.44C532.111 189.68 530.783 191.632 529.087 193.296C527.391 194.96 525.407 196.256 523.135 197.184C520.895 198.112 518.447 198.576 515.791 198.576ZM515.791 192.624C517.551 192.624 519.167 192.32 520.639 191.712C522.111 191.072 523.391 190.192 524.479 189.072C525.599 187.952 526.447 186.624 527.023 185.088C527.631 183.552 527.935 181.888 527.935 180.096C527.935 178.304 527.631 176.656 527.023 175.152C526.447 173.616 525.599 172.288 524.479 171.168C523.391 170.016 522.111 169.136 520.639 168.528C519.167 167.92 517.551 167.616 515.791 167.616C514.063 167.616 512.463 167.92 510.991 168.528C509.519 169.136 508.223 170.016 507.103 171.168C506.015 172.288 505.167 173.616 504.559 175.152C503.951 176.656 503.647 178.304 503.647 180.096C503.647 181.888 503.951 183.552 504.559 185.088C505.167 186.624 506.015 187.952 507.103 189.072C508.223 190.192 509.519 191.072 510.991 191.712C512.463 192.32 514.063 192.624 515.791 192.624ZM540.315 198V162.24H553.611C556.043 162.24 558.187 162.688 560.043 163.584C561.931 164.448 563.403 165.728 564.459 167.424C565.515 169.088 566.043 171.12 566.043 173.52C566.043 175.984 565.451 178.08 564.267 179.808C563.115 181.536 561.547 182.816 559.563 183.648L567.771 198H560.379L551.595 182.304L555.819 184.8H546.843V198H540.315ZM546.843 179.04H553.707C554.891 179.04 555.915 178.816 556.779 178.368C557.643 177.888 558.315 177.232 558.795 176.4C559.275 175.568 559.515 174.608 559.515 173.52C559.515 172.4 559.275 171.44 558.795 170.64C558.315 169.808 557.643 169.168 556.779 168.72C555.915 168.24 554.891 168 553.707 168H546.843V179.04ZM584.818 198.576C582.546 198.576 580.434 198.16 578.482 197.328C576.562 196.496 574.898 195.344 573.49 193.872C572.114 192.368 571.106 190.624 570.466 188.64L575.89 186.288C576.754 188.336 578.002 189.952 579.634 191.136C581.266 192.288 583.106 192.864 585.154 192.864C586.306 192.864 587.298 192.688 588.13 192.336C588.994 191.952 589.65 191.44 590.098 190.8C590.578 190.16 590.818 189.392 590.818 188.496C590.818 187.44 590.498 186.576 589.858 185.904C589.25 185.2 588.322 184.656 587.074 184.272L580.21 182.064C577.426 181.2 575.33 179.904 573.922 178.176C572.514 176.448 571.81 174.416 571.81 172.08C571.81 170.032 572.306 168.224 573.298 166.656C574.322 165.088 575.73 163.872 577.522 163.008C579.346 162.112 581.426 161.664 583.762 161.664C585.906 161.664 587.874 162.048 589.666 162.816C591.458 163.552 592.994 164.592 594.274 165.936C595.586 167.248 596.562 168.8 597.202 170.592L591.826 172.992C591.122 171.2 590.066 169.824 588.658 168.864C587.25 167.872 585.618 167.376 583.762 167.376C582.674 167.376 581.714 167.568 580.882 167.952C580.05 168.304 579.394 168.816 578.914 169.488C578.466 170.128 578.242 170.896 578.242 171.792C578.242 172.784 578.562 173.664 579.202 174.432C579.842 175.168 580.818 175.744 582.13 176.16L588.706 178.224C591.554 179.152 593.682 180.432 595.09 182.064C596.53 183.696 597.25 185.712 597.25 188.112C597.25 190.16 596.722 191.968 595.666 193.536C594.61 195.104 593.154 196.336 591.298 197.232C589.442 198.128 587.282 198.576 584.818 198.576Z" fill="#A4A4A4"/>
<path d="M109.459 196.889C106.672 196.982 102.208 197.072 97.8076 196.912C96.2273 196.854 95 195.556 95 193.975V156.171C95 154.115 96.4824 153.087 97.9648 152.573C99.4473 152.059 120.201 152.573 132.06 152.573C143.92 152.573 143.426 128.418 133.049 128.418H97.9648C96.4824 128.418 95 127.904 95 126.876V115.056C95 113.514 96.4824 113 97.9648 113H138.978C151.826 113 159.494 129.697 157.756 143.836C156.112 157.21 151.332 168.505 134.531 168.505H112.295V193.931C112.295 195.524 111.051 196.836 109.459 196.889Z" fill="#A4A4A4"/>
<path d="M198.517 113C204.348 113 209.568 113.972 214.176 115.916C218.856 117.86 222.817 120.452 226.057 123.692C228.608 126.244 230.579 129.019 231.97 132.018C232.61 133.398 231.934 134.99 230.562 135.65L221.191 140.165C219.581 140.941 217.67 140.129 216.805 138.564C215.397 136.02 213.441 133.834 210.937 132.008C207.553 129.416 203.412 128.12 198.517 128.12C193.765 128.12 189.588 129.236 185.988 131.468C182.388 133.7 179.58 136.796 177.564 140.756C175.62 144.644 174.648 149.216 174.648 154.472C174.648 159.728 175.62 164.336 177.564 168.296C179.58 172.256 182.388 175.352 185.988 177.584C189.588 179.816 193.765 180.932 198.517 180.932C203.412 180.932 207.553 179.672 210.937 177.152C213.443 175.272 215.4 173.051 216.809 170.489C217.67 168.923 219.581 168.111 221.191 168.887L230.562 173.401C231.934 174.062 232.61 175.654 231.97 177.035C230.579 180.033 228.608 182.809 226.057 185.36C222.817 188.6 218.856 191.192 214.176 193.136C209.568 195.08 204.348 196.052 198.517 196.052C192.757 196.052 187.392 195.008 182.424 192.92C177.528 190.832 173.244 187.916 169.572 184.172C165.9 180.428 163.021 176.036 160.933 170.996C159.265 166.827 158.288 162.337 158 157.526C159.9 153.626 160.932 148.984 161.537 144.059C161.846 141.543 161.856 138.947 161.594 136.378C163.554 131.955 166.176 128.06 169.464 124.772C173.136 121.028 177.42 118.148 182.316 116.132C187.284 114.044 192.685 113 198.517 113Z" fill="#A4A4A4"/>
<path d="M90.7603 212.5C107.269 232.357 132.158 245 160 245C195.624 245 226.414 224.303 241 194.277" stroke="#A4A4A4" stroke-width="10" stroke-linecap="round"/>
<path d="M235.199 115.337C236.49 117.778 239.515 118.711 241.956 117.42C244.397 116.13 245.33 113.105 244.04 110.663L239.619 113L235.199 115.337ZM160 65V70C192.611 70 220.941 88.3631 235.199 115.337L239.619 113L244.04 110.663C228.118 80.5433 196.462 60 160 60V65ZM90.7601 212.5L94.6049 209.304C82.3597 194.575 75 175.653 75 155H70H65C65 178.074 73.2325 199.238 86.9152 215.696L90.7601 212.5ZM70 155H75C75 108.056 113.056 70 160 70V65V60C107.533 60 65 102.533 65 155H70Z" fill="#A4A4A4"/>
</g>
<defs>
<clipPath id="clip0_4004_166">
<rect width="635" height="335" fill="white"/>
</clipPath>
</defs>
</svg>
