<svg width="656" height="284" viewBox="0 0 656 284" fill="none" xmlns="http://www.w3.org/2000/svg">
<rect width="656" height="284" fill="white"/>
<path d="M150 158C139.768 158.253 141.615 157.744 137 160C133.901 161.515 130 165.387 130 165.387L29 254V197.5L103.5 125.93C108.066 121.544 111.151 117.793 117.5 115C122.095 112.978 130 112 130 112H197.5L150 158Z" fill="#EA6A1C"/>
<path d="M85.6866 209.066L130 169.5C129.988 195.802 130.042 207 148 207H284L266 251L129 252C100.461 250.549 92.5121 238.803 85.6866 209.066Z" fill="#EA6A1C"/>
<path d="M252.806 112C247.206 135.2 225.948 152.5 218.281 158H285L307 112H252.806Z" fill="#EA6A1C"/>
<path d="M72 153L29 193.5V57C31 37 48.5 31 48.5 31C55.1667 30.8333 212.5 31 212.5 31C284.9 83.4 243.5 137.667 214.5 158H150L197.5 112C215.5 93.2 202.5 75.5 190 74H72V153Z" fill="#71706F"/>
<path d="M314.88 143V113.2H326C328.027 113.2 329.813 113.573 331.36 114.32C332.933 115.04 334.16 116.107 335.04 117.52C335.92 118.907 336.36 120.6 336.36 122.6C336.36 124.573 335.907 126.267 335 127.68C334.12 129.067 332.907 130.133 331.36 130.88C329.813 131.627 328.027 132 326 132H320.32V143H314.88ZM320.32 127.2H326.08C327.067 127.2 327.92 127.013 328.64 126.64C329.36 126.24 329.92 125.693 330.32 125C330.72 124.307 330.92 123.507 330.92 122.6C330.92 121.667 330.72 120.867 330.32 120.2C329.92 119.507 329.36 118.973 328.64 118.6C327.92 118.2 327.067 118 326.08 118H320.32V127.2ZM335.995 143L346.275 113.2H353.315L363.595 143H357.675L355.555 136.6H344.035L341.875 143H335.995ZM345.595 131.8H353.995L349.035 116.96H350.555L345.595 131.8ZM366.911 143V113.2H371.151L387.551 135.28L385.351 135.72V113.2H390.791V143H386.511L370.351 120.76L372.351 120.32V143H366.911ZM394.12 143L404.4 113.2H411.44L421.72 143H415.8L413.68 136.6H402.16L400 143H394.12ZM403.72 131.8H412.12L407.16 116.96H408.68L403.72 131.8ZM425.036 143V113.2H430.236L441.396 128.36H438.916L449.836 113.2H455.036V143H449.556V119.4L451.676 119.92L440.356 135H439.716L428.676 119.92L430.476 119.4V143H425.036ZM458.299 143L468.579 113.2H475.619L485.899 143H479.979L477.859 136.6H466.339L464.179 143H458.299ZM467.899 131.8H476.299L471.339 116.96H472.859L467.899 131.8Z" fill="#71706F"/>
<path d="M328.88 179.48C326.747 179.48 324.773 179.093 322.96 178.32C321.173 177.547 319.6 176.467 318.24 175.08C316.907 173.693 315.867 172.067 315.12 170.2C314.373 168.333 314 166.293 314 164.08C314 161.867 314.36 159.827 315.08 157.96C315.827 156.067 316.867 154.44 318.2 153.08C319.56 151.693 321.147 150.627 322.96 149.88C324.773 149.107 326.747 148.72 328.88 148.72C331.013 148.72 332.92 149.08 334.6 149.8C336.307 150.52 337.747 151.48 338.92 152.68C340.093 153.853 340.933 155.147 341.44 156.56L336.56 158.84C336 157.347 335.053 156.12 333.72 155.16C332.387 154.173 330.773 153.68 328.88 153.68C327.013 153.68 325.36 154.12 323.92 155C322.507 155.88 321.4 157.093 320.6 158.64C319.827 160.187 319.44 162 319.44 164.08C319.44 166.16 319.827 167.987 320.6 169.56C321.4 171.107 322.507 172.32 323.92 173.2C325.36 174.08 327.013 174.52 328.88 174.52C330.773 174.52 332.387 174.04 333.72 173.08C335.053 172.093 336 170.853 336.56 169.36L341.44 171.64C340.933 173.053 340.093 174.36 338.92 175.56C337.747 176.733 336.307 177.68 334.6 178.4C332.92 179.12 331.013 179.48 328.88 179.48ZM360.537 179.48C358.35 179.48 356.31 179.093 354.417 178.32C352.523 177.547 350.87 176.467 349.457 175.08C348.043 173.693 346.937 172.067 346.137 170.2C345.363 168.307 344.977 166.267 344.977 164.08C344.977 161.867 345.363 159.827 346.137 157.96C346.91 156.093 348.003 154.467 349.417 153.08C350.83 151.693 352.483 150.627 354.377 149.88C356.27 149.107 358.323 148.72 360.537 148.72C362.75 148.72 364.803 149.107 366.697 149.88C368.59 150.653 370.243 151.733 371.657 153.12C373.07 154.48 374.163 156.093 374.937 157.96C375.737 159.827 376.137 161.867 376.137 164.08C376.137 166.267 375.737 168.307 374.937 170.2C374.137 172.067 373.03 173.693 371.617 175.08C370.203 176.467 368.55 177.547 366.657 178.32C364.79 179.093 362.75 179.48 360.537 179.48ZM360.537 174.52C362.003 174.52 363.35 174.267 364.577 173.76C365.803 173.227 366.87 172.493 367.777 171.56C368.71 170.627 369.417 169.52 369.897 168.24C370.403 166.96 370.657 165.573 370.657 164.08C370.657 162.587 370.403 161.213 369.897 159.96C369.417 158.68 368.71 157.573 367.777 156.64C366.87 155.68 365.803 154.947 364.577 154.44C363.35 153.933 362.003 153.68 360.537 153.68C359.097 153.68 357.763 153.933 356.537 154.44C355.31 154.947 354.23 155.68 353.297 156.64C352.39 157.573 351.683 158.68 351.177 159.96C350.67 161.213 350.417 162.587 350.417 164.08C350.417 165.573 350.67 166.96 351.177 168.24C351.683 169.52 352.39 170.627 353.297 171.56C354.23 172.493 355.31 173.227 356.537 173.76C357.763 174.267 359.097 174.52 360.537 174.52ZM380.974 179V149.2H386.414V174.2H399.174V179H380.974ZM402.693 179V149.2H408.133V174.2H420.893V179H402.693ZM424.411 179V149.2H444.211V154H429.851V161.64H443.411V166.44H429.851V174.2H444.211V179H424.411ZM462.2 179.48C460.067 179.48 458.094 179.093 456.28 178.32C454.494 177.547 452.92 176.467 451.56 175.08C450.227 173.693 449.187 172.067 448.44 170.2C447.694 168.333 447.32 166.293 447.32 164.08C447.32 161.867 447.68 159.827 448.4 157.96C449.147 156.067 450.187 154.44 451.52 153.08C452.88 151.693 454.467 150.627 456.28 149.88C458.094 149.107 460.067 148.72 462.2 148.72C464.334 148.72 466.24 149.08 467.92 149.8C469.627 150.52 471.067 151.48 472.24 152.68C473.414 153.853 474.254 155.147 474.76 156.56L469.88 158.84C469.32 157.347 468.374 156.12 467.04 155.16C465.707 154.173 464.094 153.68 462.2 153.68C460.334 153.68 458.68 154.12 457.24 155C455.827 155.88 454.72 157.093 453.92 158.64C453.147 160.187 452.76 162 452.76 164.08C452.76 166.16 453.147 167.987 453.92 169.56C454.72 171.107 455.827 172.32 457.24 173.2C458.68 174.08 460.334 174.52 462.2 174.52C464.094 174.52 465.707 174.04 467.04 173.08C468.374 172.093 469.32 170.853 469.88 169.36L474.76 171.64C474.254 173.053 473.414 174.36 472.24 175.56C471.067 176.733 469.627 177.68 467.92 178.4C466.24 179.12 464.334 179.48 462.2 179.48ZM484.457 179V154H476.737V149.2H497.537V154H489.937V179H484.457ZM514.326 179.48C512.139 179.48 510.099 179.093 508.206 178.32C506.312 177.547 504.659 176.467 503.246 175.08C501.832 173.693 500.726 172.067 499.926 170.2C499.152 168.307 498.766 166.267 498.766 164.08C498.766 161.867 499.152 159.827 499.926 157.96C500.699 156.093 501.792 154.467 503.206 153.08C504.619 151.693 506.272 150.627 508.166 149.88C510.059 149.107 512.112 148.72 514.326 148.72C516.539 148.72 518.592 149.107 520.486 149.88C522.379 150.653 524.032 151.733 525.446 153.12C526.859 154.48 527.952 156.093 528.726 157.96C529.526 159.827 529.926 161.867 529.926 164.08C529.926 166.267 529.526 168.307 528.726 170.2C527.926 172.067 526.819 173.693 525.406 175.08C523.992 176.467 522.339 177.547 520.446 178.32C518.579 179.093 516.539 179.48 514.326 179.48ZM514.326 174.52C515.792 174.52 517.139 174.267 518.366 173.76C519.592 173.227 520.659 172.493 521.566 171.56C522.499 170.627 523.206 169.52 523.686 168.24C524.192 166.96 524.446 165.573 524.446 164.08C524.446 162.587 524.192 161.213 523.686 159.96C523.206 158.68 522.499 157.573 521.566 156.64C520.659 155.68 519.592 154.947 518.366 154.44C517.139 153.933 515.792 153.68 514.326 153.68C512.886 153.68 511.552 153.933 510.326 154.44C509.099 154.947 508.019 155.68 507.086 156.64C506.179 157.573 505.472 158.68 504.966 159.96C504.459 161.213 504.206 162.587 504.206 164.08C504.206 165.573 504.459 166.96 504.966 168.24C505.472 169.52 506.179 170.627 507.086 171.56C508.019 172.493 509.099 173.227 510.326 173.76C511.552 174.267 512.886 174.52 514.326 174.52ZM534.763 179V149.2H545.843C547.869 149.2 549.656 149.573 551.203 150.32C552.776 151.04 554.003 152.107 554.883 153.52C555.763 154.907 556.203 156.6 556.203 158.6C556.203 160.653 555.709 162.4 554.723 163.84C553.763 165.28 552.456 166.347 550.803 167.04L557.643 179H551.483L544.163 165.92L547.683 168H540.203V179H534.763ZM540.203 163.2H545.923C546.909 163.2 547.763 163.013 548.483 162.64C549.203 162.24 549.763 161.693 550.163 161C550.563 160.307 550.763 159.507 550.763 158.6C550.763 157.667 550.563 156.867 550.163 156.2C549.763 155.507 549.203 154.973 548.483 154.6C547.763 154.2 546.909 154 545.923 154H540.203V163.2ZM571.848 179.48C569.955 179.48 568.195 179.133 566.568 178.44C564.968 177.747 563.581 176.787 562.408 175.56C561.261 174.307 560.421 172.853 559.888 171.2L564.408 169.24C565.128 170.947 566.168 172.293 567.528 173.28C568.888 174.24 570.421 174.72 572.128 174.72C573.088 174.72 573.915 174.573 574.608 174.28C575.328 173.96 575.875 173.533 576.248 173C576.648 172.467 576.848 171.827 576.848 171.08C576.848 170.2 576.581 169.48 576.048 168.92C575.541 168.333 574.768 167.88 573.728 167.56L568.008 165.72C565.688 165 563.941 163.92 562.768 162.48C561.595 161.04 561.008 159.347 561.008 157.4C561.008 155.693 561.421 154.187 562.248 152.88C563.101 151.573 564.275 150.56 565.768 149.84C567.288 149.093 569.021 148.72 570.968 148.72C572.755 148.72 574.395 149.04 575.888 149.68C577.381 150.293 578.661 151.16 579.728 152.28C580.821 153.373 581.635 154.667 582.168 156.16L577.688 158.16C577.101 156.667 576.221 155.52 575.048 154.72C573.875 153.893 572.515 153.48 570.968 153.48C570.061 153.48 569.261 153.64 568.568 153.96C567.875 154.253 567.328 154.68 566.928 155.24C566.555 155.773 566.368 156.413 566.368 157.16C566.368 157.987 566.635 158.72 567.168 159.36C567.701 159.973 568.515 160.453 569.608 160.8L575.088 162.52C577.461 163.293 579.235 164.36 580.408 165.72C581.608 167.08 582.208 168.76 582.208 170.76C582.208 172.467 581.768 173.973 580.888 175.28C580.008 176.587 578.795 177.613 577.248 178.36C575.701 179.107 573.901 179.48 571.848 179.48Z" fill="#EA6A1C"/>
<path d="M307 186L630.097 186" stroke="#71706F" stroke-width="0.5" stroke-linecap="round" stroke-linejoin="round"/>
<path d="M316.584 205V193.08H320.488C321.235 193.08 321.891 193.229 322.456 193.528C323.021 193.827 323.464 194.248 323.784 194.792C324.104 195.325 324.264 195.944 324.264 196.648C324.264 197.512 324.024 198.248 323.544 198.856C323.064 199.464 322.419 199.869 321.608 200.072L324.456 205H323.512L320.488 199.704L321.352 200.2H317.384V205H316.584ZM317.384 199.48H320.488C321.075 199.48 321.587 199.363 322.024 199.128C322.472 198.883 322.824 198.547 323.08 198.12C323.336 197.683 323.464 197.187 323.464 196.632C323.464 196.067 323.336 195.576 323.08 195.16C322.835 194.733 322.488 194.403 322.04 194.168C321.592 193.923 321.075 193.8 320.488 193.8H317.384V199.48ZM329.968 205.192C329.168 205.192 328.448 205 327.808 204.616C327.168 204.221 326.661 203.693 326.288 203.032C325.915 202.36 325.728 201.613 325.728 200.792C325.728 199.96 325.909 199.213 326.272 198.552C326.635 197.88 327.12 197.352 327.728 196.968C328.347 196.584 329.04 196.392 329.808 196.392C330.352 196.392 330.859 196.493 331.328 196.696C331.797 196.899 332.203 197.181 332.544 197.544C332.896 197.907 333.168 198.333 333.36 198.824C333.552 199.304 333.648 199.827 333.648 200.392C333.648 200.499 333.643 200.6 333.632 200.696C333.632 200.792 333.621 200.899 333.6 201.016H326.096V200.376H333.184L332.912 200.584C332.944 199.923 332.827 199.331 332.56 198.808C332.293 198.275 331.92 197.853 331.44 197.544C330.96 197.224 330.416 197.064 329.808 197.064C329.179 197.064 328.608 197.229 328.096 197.56C327.595 197.891 327.195 198.339 326.896 198.904C326.597 199.459 326.448 200.088 326.448 200.792C326.448 201.496 326.603 202.131 326.912 202.696C327.221 203.261 327.637 203.709 328.16 204.04C328.693 204.36 329.296 204.52 329.968 204.52C330.576 204.52 331.125 204.376 331.616 204.088C332.107 203.8 332.501 203.395 332.8 202.872L333.408 203.192C333.205 203.597 332.928 203.955 332.576 204.264C332.224 204.563 331.824 204.792 331.376 204.952C330.939 205.112 330.469 205.192 329.968 205.192ZM339.951 205.192C339.172 205.192 338.463 205 337.823 204.616C337.194 204.232 336.692 203.709 336.319 203.048C335.946 202.376 335.759 201.624 335.759 200.792C335.759 199.949 335.946 199.197 336.319 198.536C336.692 197.875 337.194 197.352 337.823 196.968C338.463 196.584 339.172 196.392 339.951 196.392C340.474 196.392 340.954 196.477 341.391 196.648C341.839 196.819 342.228 197.053 342.559 197.352C342.9 197.651 343.167 197.992 343.359 198.376L342.751 198.712C342.452 198.179 342.063 197.773 341.583 197.496C341.103 197.208 340.559 197.064 339.951 197.064C339.3 197.064 338.714 197.219 338.191 197.528C337.668 197.837 337.252 198.275 336.943 198.84C336.634 199.395 336.479 200.045 336.479 200.792C336.479 201.539 336.634 202.195 336.943 202.76C337.252 203.315 337.668 203.747 338.191 204.056C338.714 204.365 339.3 204.52 339.951 204.52C340.559 204.52 341.103 204.376 341.583 204.088C342.063 203.8 342.452 203.395 342.751 202.872L343.359 203.192C343.167 203.565 342.9 203.907 342.559 204.216C342.228 204.515 341.839 204.755 341.391 204.936C340.954 205.107 340.474 205.192 339.951 205.192ZM348.822 205.192C348.267 205.192 347.75 205.069 347.27 204.824C346.79 204.579 346.401 204.221 346.102 203.752C345.803 203.283 345.654 202.707 345.654 202.024V196.584H346.374V202.024C346.374 202.557 346.486 203.011 346.71 203.384C346.945 203.757 347.254 204.04 347.638 204.232C348.022 204.413 348.438 204.504 348.886 204.504C349.43 204.504 349.889 204.381 350.262 204.136C350.646 203.88 350.934 203.539 351.126 203.112C351.318 202.685 351.414 202.216 351.414 201.704V196.584H352.134V205H351.414V203.224L351.606 203.304C351.435 203.859 351.099 204.312 350.598 204.664C350.107 205.016 349.515 205.192 348.822 205.192ZM354.955 208.2V196.584H355.675V198.968L355.547 198.696C355.856 198.003 356.326 197.448 356.955 197.032C357.595 196.605 358.32 196.392 359.131 196.392C359.92 196.392 360.624 196.584 361.243 196.968C361.872 197.352 362.368 197.88 362.731 198.552C363.094 199.213 363.275 199.96 363.275 200.792C363.275 201.624 363.094 202.371 362.731 203.032C362.368 203.693 361.872 204.221 361.243 204.616C360.624 205 359.92 205.192 359.131 205.192C358.32 205.192 357.595 204.984 356.955 204.568C356.326 204.141 355.856 203.581 355.547 202.888L355.675 202.616V208.2H354.955ZM359.131 204.472C359.782 204.472 360.358 204.312 360.859 203.992C361.371 203.672 361.771 203.235 362.059 202.68C362.358 202.125 362.507 201.496 362.507 200.792C362.507 200.088 362.358 199.459 362.059 198.904C361.771 198.349 361.371 197.912 360.859 197.592C360.358 197.272 359.782 197.112 359.131 197.112C358.491 197.112 357.91 197.272 357.387 197.592C356.875 197.912 356.47 198.349 356.171 198.904C355.872 199.448 355.723 200.077 355.723 200.792C355.723 201.496 355.872 202.125 356.171 202.68C356.47 203.235 356.875 203.672 357.387 203.992C357.91 204.312 358.491 204.472 359.131 204.472ZM369.624 205.192C368.824 205.192 368.104 205 367.464 204.616C366.824 204.221 366.317 203.693 365.944 203.032C365.571 202.36 365.384 201.613 365.384 200.792C365.384 199.96 365.565 199.213 365.928 198.552C366.291 197.88 366.776 197.352 367.384 196.968C368.003 196.584 368.696 196.392 369.464 196.392C370.008 196.392 370.515 196.493 370.984 196.696C371.453 196.899 371.859 197.181 372.2 197.544C372.552 197.907 372.824 198.333 373.016 198.824C373.208 199.304 373.304 199.827 373.304 200.392C373.304 200.499 373.299 200.6 373.288 200.696C373.288 200.792 373.277 200.899 373.256 201.016H365.752V200.376H372.84L372.568 200.584C372.6 199.923 372.483 199.331 372.216 198.808C371.949 198.275 371.576 197.853 371.096 197.544C370.616 197.224 370.072 197.064 369.464 197.064C368.835 197.064 368.264 197.229 367.752 197.56C367.251 197.891 366.851 198.339 366.552 198.904C366.253 199.459 366.104 200.088 366.104 200.792C366.104 201.496 366.259 202.131 366.568 202.696C366.877 203.261 367.293 203.709 367.816 204.04C368.349 204.36 368.952 204.52 369.624 204.52C370.232 204.52 370.781 204.376 371.272 204.088C371.763 203.8 372.157 203.395 372.456 202.872L373.064 203.192C372.861 203.597 372.584 203.955 372.232 204.264C371.88 204.563 371.48 204.792 371.032 204.952C370.595 205.112 370.125 205.192 369.624 205.192ZM375.767 205V196.584H376.487V198.36L376.295 198.28C376.455 197.715 376.775 197.277 377.255 196.968C377.735 196.648 378.29 196.488 378.919 196.488H379.447V197.208H378.903C378.135 197.208 377.538 197.459 377.111 197.96C376.695 198.461 376.487 199.101 376.487 199.88V205H375.767ZM383.589 205.192C383.077 205.192 382.613 205.096 382.197 204.904C381.792 204.701 381.466 204.424 381.221 204.072C380.976 203.709 380.853 203.293 380.853 202.824C380.853 202.44 380.938 202.072 381.109 201.72C381.29 201.357 381.578 201.043 381.973 200.776C382.378 200.509 382.917 200.323 383.589 200.216L387.109 199.624V200.312L383.829 200.856C382.997 200.995 382.416 201.24 382.085 201.592C381.754 201.944 381.589 202.344 381.589 202.792C381.589 203.325 381.786 203.747 382.181 204.056C382.576 204.365 383.066 204.52 383.653 204.52C384.304 204.52 384.864 204.365 385.333 204.056C385.813 203.747 386.186 203.341 386.453 202.84C386.72 202.328 386.853 201.779 386.853 201.192V199.16C386.853 198.531 386.634 198.029 386.197 197.656C385.77 197.272 385.2 197.08 384.485 197.08C383.941 197.08 383.44 197.213 382.981 197.48C382.522 197.747 382.165 198.099 381.909 198.536L381.269 198.2C381.429 197.88 381.664 197.587 381.973 197.32C382.293 197.043 382.666 196.819 383.093 196.648C383.52 196.477 383.984 196.392 384.485 196.392C385.093 196.392 385.626 196.509 386.085 196.744C386.554 196.979 386.917 197.304 387.173 197.72C387.44 198.136 387.573 198.616 387.573 199.16V205H386.853V203.16H386.917C386.778 203.512 386.549 203.843 386.229 204.152C385.909 204.461 385.525 204.712 385.077 204.904C384.629 205.096 384.133 205.192 383.589 205.192ZM394.232 205.192C393.454 205.192 392.744 205 392.104 204.616C391.475 204.232 390.974 203.709 390.6 203.048C390.227 202.376 390.04 201.624 390.04 200.792C390.04 199.949 390.227 199.197 390.6 198.536C390.974 197.875 391.475 197.352 392.104 196.968C392.744 196.584 393.454 196.392 394.232 196.392C394.755 196.392 395.235 196.477 395.672 196.648C396.12 196.819 396.51 197.053 396.84 197.352C397.182 197.651 397.448 197.992 397.64 198.376L397.032 198.712C396.734 198.179 396.344 197.773 395.864 197.496C395.384 197.208 394.84 197.064 394.232 197.064C393.582 197.064 392.995 197.219 392.472 197.528C391.95 197.837 391.534 198.275 391.224 198.84C390.915 199.395 390.76 200.045 390.76 200.792C390.76 201.539 390.915 202.195 391.224 202.76C391.534 203.315 391.95 203.747 392.472 204.056C392.995 204.365 393.582 204.52 394.232 204.52C394.84 204.52 395.384 204.376 395.864 204.088C396.344 203.8 396.734 203.395 397.032 202.872L397.64 203.192C397.448 203.565 397.182 203.907 396.84 204.216C396.51 204.515 396.12 204.755 395.672 204.936C395.235 205.107 394.755 205.192 394.232 205.192ZM400.111 205V196.584H400.831V205H400.111ZM400.111 194.84V193.08H400.831V194.84H400.111ZM407.53 205.192C406.73 205.192 406.01 205 405.37 204.616C404.73 204.232 404.224 203.709 403.85 203.048C403.477 202.376 403.29 201.624 403.29 200.792C403.29 199.949 403.477 199.197 403.85 198.536C404.224 197.875 404.73 197.352 405.37 196.968C406.01 196.584 406.73 196.392 407.53 196.392C408.341 196.392 409.061 196.584 409.69 196.968C410.33 197.352 410.837 197.875 411.21 198.536C411.584 199.197 411.77 199.949 411.77 200.792C411.77 201.624 411.584 202.376 411.21 203.048C410.837 203.709 410.33 204.232 409.69 204.616C409.061 205 408.341 205.192 407.53 205.192ZM407.53 204.504C408.181 204.504 408.768 204.344 409.29 204.024C409.813 203.693 410.229 203.245 410.538 202.68C410.848 202.115 411.002 201.485 411.002 200.792C411.002 200.088 410.848 199.459 410.538 198.904C410.24 198.339 409.829 197.896 409.306 197.576C408.784 197.245 408.192 197.08 407.53 197.08C406.88 197.08 406.288 197.245 405.754 197.576C405.232 197.896 404.816 198.339 404.506 198.904C404.208 199.459 404.058 200.088 404.058 200.792C404.058 201.485 404.213 202.115 404.522 202.68C404.832 203.245 405.248 203.693 405.77 204.024C406.293 204.344 406.88 204.504 407.53 204.504ZM407.162 194.76L408.634 192.36H409.61L407.882 194.76H407.162ZM414.236 205V196.584H414.956V198.36L414.764 198.28C414.935 197.715 415.271 197.261 415.772 196.92C416.284 196.568 416.876 196.392 417.548 196.392C418.113 196.392 418.636 196.52 419.116 196.776C419.596 197.032 419.98 197.395 420.268 197.864C420.567 198.323 420.716 198.861 420.716 199.48V205H419.996V199.56C419.996 199.048 419.884 198.611 419.66 198.248C419.436 197.875 419.132 197.587 418.748 197.384C418.375 197.181 417.953 197.08 417.484 197.08C416.951 197.08 416.492 197.208 416.108 197.464C415.735 197.709 415.447 198.045 415.244 198.472C415.052 198.888 414.956 199.357 414.956 199.88V205H414.236ZM425.812 208.52C425.684 208.52 425.534 208.509 425.364 208.488C425.193 208.467 425.028 208.429 424.868 208.376V207.72C425.017 207.763 425.172 207.789 425.332 207.8C425.502 207.821 425.646 207.832 425.764 207.832C426.286 207.821 426.702 207.677 427.012 207.4C427.332 207.133 427.604 206.739 427.828 206.216L428.5 204.648L428.532 205.384L424.964 196.584H425.78L428.996 204.52H428.548L431.796 196.584H432.628L428.596 206.296C428.478 206.584 428.302 206.899 428.068 207.24C427.844 207.592 427.545 207.891 427.172 208.136C426.809 208.392 426.356 208.52 425.812 208.52ZM440.843 208.52C440.299 208.52 439.792 208.429 439.323 208.248C438.864 208.077 438.459 207.837 438.107 207.528C437.755 207.229 437.478 206.893 437.275 206.52L437.883 206.168C438.192 206.691 438.603 207.101 439.115 207.4C439.627 207.699 440.203 207.848 440.843 207.848C441.376 207.848 441.883 207.736 442.363 207.512C442.854 207.299 443.254 206.957 443.563 206.488C443.883 206.029 444.043 205.437 444.043 204.712V202.296L444.203 202.568C443.904 203.261 443.44 203.821 442.811 204.248C442.192 204.664 441.478 204.872 440.667 204.872C439.888 204.872 439.19 204.68 438.571 204.296C437.963 203.912 437.483 203.4 437.131 202.76C436.779 202.12 436.603 201.411 436.603 200.632C436.603 199.853 436.779 199.144 437.131 198.504C437.483 197.864 437.963 197.352 438.571 196.968C439.19 196.584 439.888 196.392 440.667 196.392C441.478 196.392 442.192 196.605 442.811 197.032C443.44 197.448 443.904 198.003 444.203 198.696L444.043 198.968V196.584H444.763V204.712C444.763 205.448 444.592 206.104 444.251 206.68C443.92 207.256 443.462 207.704 442.875 208.024C442.288 208.355 441.611 208.52 440.843 208.52ZM440.667 204.152C441.318 204.152 441.888 203.997 442.379 203.688C442.88 203.368 443.275 202.941 443.563 202.408C443.851 201.875 443.995 201.283 443.995 200.632C443.995 199.971 443.851 199.379 443.563 198.856C443.275 198.323 442.88 197.901 442.379 197.592C441.888 197.272 441.318 197.112 440.667 197.112C440.016 197.112 439.44 197.272 438.939 197.592C438.448 197.901 438.064 198.323 437.787 198.856C437.51 199.389 437.371 199.981 437.371 200.632C437.371 201.283 437.51 201.875 437.787 202.408C438.064 202.941 438.448 203.368 438.939 203.688C439.44 203.997 440.016 204.152 440.667 204.152ZM451.468 205.192C450.668 205.192 449.948 205 449.308 204.616C448.668 204.221 448.161 203.693 447.788 203.032C447.415 202.36 447.228 201.613 447.228 200.792C447.228 199.96 447.409 199.213 447.772 198.552C448.135 197.88 448.62 197.352 449.228 196.968C449.847 196.584 450.54 196.392 451.308 196.392C451.852 196.392 452.359 196.493 452.828 196.696C453.297 196.899 453.703 197.181 454.044 197.544C454.396 197.907 454.668 198.333 454.86 198.824C455.052 199.304 455.148 199.827 455.148 200.392C455.148 200.499 455.143 200.6 455.132 200.696C455.132 200.792 455.121 200.899 455.1 201.016H447.596V200.376H454.684L454.412 200.584C454.444 199.923 454.327 199.331 454.06 198.808C453.793 198.275 453.42 197.853 452.94 197.544C452.46 197.224 451.916 197.064 451.308 197.064C450.679 197.064 450.108 197.229 449.596 197.56C449.095 197.891 448.695 198.339 448.396 198.904C448.097 199.459 447.948 200.088 447.948 200.792C447.948 201.496 448.103 202.131 448.412 202.696C448.721 203.261 449.137 203.709 449.66 204.04C450.193 204.36 450.796 204.52 451.468 204.52C452.076 204.52 452.625 204.376 453.116 204.088C453.607 203.8 454.001 203.395 454.3 202.872L454.908 203.192C454.705 203.597 454.428 203.955 454.076 204.264C453.724 204.563 453.324 204.792 452.876 204.952C452.439 205.112 451.969 205.192 451.468 205.192ZM460.363 205.192C459.616 205.192 458.955 205.011 458.379 204.648C457.803 204.275 457.371 203.763 457.083 203.112L457.755 202.808C458.032 203.341 458.395 203.757 458.843 204.056C459.302 204.355 459.808 204.504 460.363 204.504C460.96 204.504 461.462 204.355 461.867 204.056C462.283 203.757 462.491 203.363 462.491 202.872C462.491 202.616 462.432 202.387 462.315 202.184C462.198 201.981 462.022 201.805 461.787 201.656C461.563 201.496 461.286 201.373 460.955 201.288L459.563 200.904C458.88 200.723 458.368 200.445 458.027 200.072C457.686 199.688 457.515 199.224 457.515 198.68C457.515 198.232 457.627 197.837 457.851 197.496C458.086 197.144 458.4 196.872 458.795 196.68C459.19 196.488 459.627 196.392 460.107 196.392C460.79 196.392 461.408 196.568 461.963 196.92C462.528 197.261 462.918 197.715 463.131 198.28L462.427 198.6C462.192 198.12 461.872 197.747 461.467 197.48C461.062 197.213 460.608 197.08 460.107 197.08C459.574 197.08 459.131 197.229 458.779 197.528C458.427 197.827 458.251 198.205 458.251 198.664C458.251 198.899 458.304 199.112 458.411 199.304C458.518 199.485 458.678 199.645 458.891 199.784C459.104 199.923 459.366 200.035 459.675 200.12L461.083 200.52C461.776 200.712 462.31 201.011 462.683 201.416C463.056 201.811 463.243 202.285 463.243 202.84C463.243 203.288 463.115 203.693 462.859 204.056C462.603 204.408 462.256 204.685 461.819 204.888C461.392 205.091 460.907 205.192 460.363 205.192ZM468.617 205.096C467.966 205.096 467.465 204.92 467.113 204.568C466.761 204.216 466.585 203.688 466.585 202.984V197.224H464.985V196.584H465.785C466.062 196.584 466.265 196.515 466.393 196.376C466.521 196.237 466.585 196.019 466.585 195.72V194.6H467.305V196.584H469.129V197.224H467.305V202.984C467.305 203.176 467.332 203.384 467.385 203.608C467.449 203.832 467.577 204.024 467.769 204.184C467.972 204.333 468.276 204.408 468.681 204.408C468.766 204.408 468.873 204.403 469.001 204.392C469.129 204.381 469.23 204.371 469.305 204.36V205C469.198 205.032 469.07 205.053 468.921 205.064C468.782 205.085 468.681 205.096 468.617 205.096ZM471.767 205V196.584H472.487V205H471.767ZM471.767 194.84V193.08H472.487V194.84H471.767ZM479.187 205.192C478.387 205.192 477.667 205 477.027 204.616C476.387 204.232 475.88 203.709 475.507 203.048C475.133 202.376 474.947 201.624 474.947 200.792C474.947 199.949 475.133 199.197 475.507 198.536C475.88 197.875 476.387 197.352 477.027 196.968C477.667 196.584 478.387 196.392 479.187 196.392C479.997 196.392 480.717 196.584 481.347 196.968C481.987 197.352 482.493 197.875 482.867 198.536C483.24 199.197 483.427 199.949 483.427 200.792C483.427 201.624 483.24 202.376 482.867 203.048C482.493 203.709 481.987 204.232 481.347 204.616C480.717 205 479.997 205.192 479.187 205.192ZM479.187 204.504C479.837 204.504 480.424 204.344 480.947 204.024C481.469 203.693 481.885 203.245 482.195 202.68C482.504 202.115 482.659 201.485 482.659 200.792C482.659 200.088 482.504 199.459 482.195 198.904C481.896 198.339 481.485 197.896 480.963 197.576C480.44 197.245 479.848 197.08 479.187 197.08C478.536 197.08 477.944 197.245 477.411 197.576C476.888 197.896 476.472 198.339 476.163 198.904C475.864 199.459 475.715 200.088 475.715 200.792C475.715 201.485 475.869 202.115 476.179 202.68C476.488 203.245 476.904 203.693 477.427 204.024C477.949 204.344 478.536 204.504 479.187 204.504ZM478.819 194.76L480.291 192.36H481.267L479.539 194.76H478.819ZM485.892 205V196.584H486.612V198.36L486.42 198.28C486.591 197.715 486.927 197.261 487.428 196.92C487.94 196.568 488.532 196.392 489.204 196.392C489.77 196.392 490.292 196.52 490.772 196.776C491.252 197.032 491.636 197.395 491.924 197.864C492.223 198.323 492.372 198.861 492.372 199.48V205H491.652V199.56C491.652 199.048 491.54 198.611 491.316 198.248C491.092 197.875 490.788 197.587 490.404 197.384C490.031 197.181 489.61 197.08 489.14 197.08C488.607 197.08 488.148 197.208 487.764 197.464C487.391 197.709 487.103 198.045 486.9 198.472C486.708 198.888 486.612 199.357 486.612 199.88V205H485.892ZM501.372 205.192C500.593 205.192 499.889 205 499.26 204.616C498.631 204.221 498.135 203.693 497.772 203.032C497.409 202.371 497.228 201.624 497.228 200.792C497.228 199.96 497.409 199.213 497.772 198.552C498.135 197.88 498.631 197.352 499.26 196.968C499.889 196.584 500.593 196.392 501.372 196.392C502.183 196.392 502.908 196.605 503.548 197.032C504.188 197.448 504.657 198.003 504.956 198.696L504.828 198.968V192.888H505.548V205H504.828V202.616L504.956 202.888C504.657 203.581 504.188 204.141 503.548 204.568C502.908 204.984 502.183 205.192 501.372 205.192ZM501.372 204.472C502.023 204.472 502.604 204.312 503.116 203.992C503.628 203.672 504.033 203.235 504.332 202.68C504.631 202.125 504.78 201.496 504.78 200.792C504.78 200.077 504.631 199.448 504.332 198.904C504.033 198.349 503.628 197.912 503.116 197.592C502.604 197.272 502.023 197.112 501.372 197.112C500.721 197.112 500.14 197.272 499.628 197.592C499.127 197.912 498.727 198.349 498.428 198.904C498.14 199.459 497.996 200.088 497.996 200.792C497.996 201.496 498.14 202.125 498.428 202.68C498.727 203.235 499.127 203.672 499.628 203.992C500.14 204.312 500.721 204.472 501.372 204.472ZM512.249 205.192C511.449 205.192 510.729 205 510.089 204.616C509.449 204.221 508.942 203.693 508.569 203.032C508.196 202.36 508.009 201.613 508.009 200.792C508.009 199.96 508.19 199.213 508.553 198.552C508.916 197.88 509.401 197.352 510.009 196.968C510.628 196.584 511.321 196.392 512.089 196.392C512.633 196.392 513.14 196.493 513.609 196.696C514.078 196.899 514.484 197.181 514.825 197.544C515.177 197.907 515.449 198.333 515.641 198.824C515.833 199.304 515.929 199.827 515.929 200.392C515.929 200.499 515.924 200.6 515.913 200.696C515.913 200.792 515.902 200.899 515.881 201.016H508.377V200.376H515.465L515.193 200.584C515.225 199.923 515.108 199.331 514.841 198.808C514.574 198.275 514.201 197.853 513.721 197.544C513.241 197.224 512.697 197.064 512.089 197.064C511.46 197.064 510.889 197.229 510.377 197.56C509.876 197.891 509.476 198.339 509.177 198.904C508.878 199.459 508.729 200.088 508.729 200.792C508.729 201.496 508.884 202.131 509.193 202.696C509.502 203.261 509.918 203.709 510.441 204.04C510.974 204.36 511.577 204.52 512.249 204.52C512.857 204.52 513.406 204.376 513.897 204.088C514.388 203.8 514.782 203.395 515.081 202.872L515.689 203.192C515.486 203.597 515.209 203.955 514.857 204.264C514.505 204.563 514.105 204.792 513.657 204.952C513.22 205.112 512.75 205.192 512.249 205.192ZM523.339 205.192C522.827 205.192 522.363 205.096 521.947 204.904C521.542 204.701 521.216 204.424 520.971 204.072C520.726 203.709 520.603 203.293 520.603 202.824C520.603 202.44 520.688 202.072 520.859 201.72C521.04 201.357 521.328 201.043 521.723 200.776C522.128 200.509 522.667 200.323 523.339 200.216L526.859 199.624V200.312L523.579 200.856C522.747 200.995 522.166 201.24 521.835 201.592C521.504 201.944 521.339 202.344 521.339 202.792C521.339 203.325 521.536 203.747 521.931 204.056C522.326 204.365 522.816 204.52 523.403 204.52C524.054 204.52 524.614 204.365 525.083 204.056C525.563 203.747 525.936 203.341 526.203 202.84C526.47 202.328 526.603 201.779 526.603 201.192V199.16C526.603 198.531 526.384 198.029 525.947 197.656C525.52 197.272 524.95 197.08 524.235 197.08C523.691 197.08 523.19 197.213 522.731 197.48C522.272 197.747 521.915 198.099 521.659 198.536L521.019 198.2C521.179 197.88 521.414 197.587 521.723 197.32C522.043 197.043 522.416 196.819 522.843 196.648C523.27 196.477 523.734 196.392 524.235 196.392C524.843 196.392 525.376 196.509 525.835 196.744C526.304 196.979 526.667 197.304 526.923 197.72C527.19 198.136 527.323 198.616 527.323 199.16V205H526.603V203.16H526.667C526.528 203.512 526.299 203.843 525.979 204.152C525.659 204.461 525.275 204.712 524.827 204.904C524.379 205.096 523.883 205.192 523.339 205.192ZM533.982 205.192C533.204 205.192 532.494 205 531.854 204.616C531.225 204.232 530.724 203.709 530.35 203.048C529.977 202.376 529.79 201.624 529.79 200.792C529.79 199.949 529.977 199.197 530.35 198.536C530.724 197.875 531.225 197.352 531.854 196.968C532.494 196.584 533.204 196.392 533.982 196.392C534.505 196.392 534.985 196.477 535.422 196.648C535.87 196.819 536.26 197.053 536.59 197.352C536.932 197.651 537.198 197.992 537.39 198.376L536.782 198.712C536.484 198.179 536.094 197.773 535.614 197.496C535.134 197.208 534.59 197.064 533.982 197.064C533.332 197.064 532.745 197.219 532.222 197.528C531.7 197.837 531.284 198.275 530.974 198.84C530.665 199.395 530.51 200.045 530.51 200.792C530.51 201.539 530.665 202.195 530.974 202.76C531.284 203.315 531.7 203.747 532.222 204.056C532.745 204.365 533.332 204.52 533.982 204.52C534.59 204.52 535.134 204.376 535.614 204.088C536.094 203.8 536.484 203.395 536.782 202.872L537.39 203.192C537.198 203.565 536.932 203.907 536.59 204.216C536.26 204.515 535.87 204.755 535.422 204.936C534.985 205.107 534.505 205.192 533.982 205.192ZM542.773 205.096C542.122 205.096 541.621 204.92 541.269 204.568C540.917 204.216 540.741 203.688 540.741 202.984V197.224H539.141V196.584H539.941C540.218 196.584 540.421 196.515 540.549 196.376C540.677 196.237 540.741 196.019 540.741 195.72V194.6H541.461V196.584H543.285V197.224H541.461V202.984C541.461 203.176 541.488 203.384 541.541 203.608C541.605 203.832 541.733 204.024 541.925 204.184C542.128 204.333 542.432 204.408 542.837 204.408C542.922 204.408 543.029 204.403 543.157 204.392C543.285 204.381 543.386 204.371 543.461 204.36V205C543.354 205.032 543.226 205.053 543.077 205.064C542.938 205.085 542.837 205.096 542.773 205.096ZM545.924 205V196.584H546.644V205H545.924ZM545.924 194.84V193.08H546.644V194.84H545.924ZM551.791 205L548.399 196.584H549.215L552.335 204.376H552.031L555.167 196.584H555.999L552.559 205H551.791ZM561.484 205.192C560.684 205.192 559.964 205 559.324 204.616C558.684 204.232 558.177 203.709 557.804 203.048C557.43 202.376 557.243 201.624 557.243 200.792C557.243 199.949 557.43 199.197 557.804 198.536C558.177 197.875 558.684 197.352 559.324 196.968C559.964 196.584 560.684 196.392 561.484 196.392C562.294 196.392 563.014 196.584 563.644 196.968C564.284 197.352 564.79 197.875 565.164 198.536C565.537 199.197 565.724 199.949 565.724 200.792C565.724 201.624 565.537 202.376 565.164 203.048C564.79 203.709 564.284 204.232 563.644 204.616C563.014 205 562.294 205.192 561.484 205.192ZM561.484 204.504C562.134 204.504 562.721 204.344 563.244 204.024C563.766 203.693 564.182 203.245 564.492 202.68C564.801 202.115 564.956 201.485 564.956 200.792C564.956 200.088 564.801 199.459 564.492 198.904C564.193 198.339 563.782 197.896 563.26 197.576C562.737 197.245 562.145 197.08 561.484 197.08C560.833 197.08 560.241 197.245 559.708 197.576C559.185 197.896 558.769 198.339 558.46 198.904C558.161 199.459 558.012 200.088 558.012 200.792C558.012 201.485 558.166 202.115 558.476 202.68C558.785 203.245 559.201 203.693 559.724 204.024C560.246 204.344 560.833 204.504 561.484 204.504ZM570.941 205.192C570.195 205.192 569.533 205.011 568.957 204.648C568.381 204.275 567.949 203.763 567.661 203.112L568.333 202.808C568.611 203.341 568.973 203.757 569.421 204.056C569.88 204.355 570.387 204.504 570.941 204.504C571.539 204.504 572.04 204.355 572.445 204.056C572.861 203.757 573.069 203.363 573.069 202.872C573.069 202.616 573.011 202.387 572.893 202.184C572.776 201.981 572.6 201.805 572.365 201.656C572.141 201.496 571.864 201.373 571.533 201.288L570.141 200.904C569.459 200.723 568.947 200.445 568.605 200.072C568.264 199.688 568.093 199.224 568.093 198.68C568.093 198.232 568.205 197.837 568.429 197.496C568.664 197.144 568.979 196.872 569.373 196.68C569.768 196.488 570.205 196.392 570.685 196.392C571.368 196.392 571.987 196.568 572.541 196.92C573.107 197.261 573.496 197.715 573.709 198.28L573.005 198.6C572.771 198.12 572.451 197.747 572.045 197.48C571.64 197.213 571.187 197.08 570.685 197.08C570.152 197.08 569.709 197.229 569.357 197.528C569.005 197.827 568.829 198.205 568.829 198.664C568.829 198.899 568.883 199.112 568.989 199.304C569.096 199.485 569.256 199.645 569.469 199.784C569.683 199.923 569.944 200.035 570.253 200.12L571.661 200.52C572.355 200.712 572.888 201.011 573.261 201.416C573.635 201.811 573.821 202.285 573.821 202.84C573.821 203.288 573.693 203.693 573.437 204.056C573.181 204.408 572.835 204.685 572.397 204.888C571.971 205.091 571.485 205.192 570.941 205.192Z" fill="#71706F"/>
</svg>
