<svg width="156" height="32" viewBox="0 0 156 32" fill="none" xmlns="http://www.w3.org/2000/svg">
<g clip-path="url(#clip0_1035_719)">
<path d="M31.268 10.8842L31.0551 10.2767L15.9602 15.7949L17.6885 20.6804L26.3726 17.4909C25.9298 21.3048 23.4523 24.3424 20.0724 25.5658C19.3742 25.819 18.7102 25.9877 18.0461 26.0974L11.0989 7.07031C11.6523 6.72437 12.2567 6.42904 12.9208 6.18435C16.5477 4.85962 19.7999 6.02403 21.6474 7.45001L27.7177 5.23089C24.8912 1.72078 18.1908 -1.26618 11.3032 1.25671C3.57268 4.07491 -1.04178 12.943 1.88696 21.2204C4.86678 29.6413 13.9595 33.337 21.8092 30.4682C29.4716 27.6668 34.1031 18.8832 31.268 10.8842ZM15.509 22.4776C14.8619 22.8067 14.2404 23.178 13.6445 23.5914C13.023 24.0386 12.4355 24.5364 11.8736 25.068C10.6391 23.4395 9.60894 21.5748 8.83419 19.5582L13.7041 17.5247L15.509 22.4776ZM7.85511 4.96088C8.18715 4.71618 8.51918 4.4968 8.87676 4.28586L11.1585 10.5382C10.4178 10.7323 9.66854 10.901 8.91082 10.9854C8.34039 11.0445 7.76997 11.0698 7.19955 11.0614C7.14847 8.98568 7.37834 6.93531 7.85511 4.96088ZM7.24212 12.2173C7.83808 12.2173 8.43404 12.1836 9.03001 12.1161C9.88139 12.0233 10.7242 11.8461 11.5501 11.6183L13.3124 16.47L8.45959 18.4866C7.93173 16.8834 7.54861 15.1874 7.3528 13.4239C7.30171 13.0189 7.26766 12.6139 7.24212 12.2173ZM6.46736 6.14216C6.1779 7.72002 6.05019 9.3485 6.08424 11.0107C5.18179 10.9348 4.29635 10.766 3.42795 10.5298C4.14311 8.87599 5.17327 7.39095 6.46736 6.14216ZM2.33819 17.685C2.0998 15.5924 2.35521 13.5167 3.01077 11.5929C4.04094 11.8883 5.07962 12.0823 6.12681 12.1583C6.15235 12.6223 6.19492 13.0864 6.24601 13.5505C6.45885 15.4152 6.86751 17.2125 7.42091 18.9253L3.04483 20.7479C2.69576 19.7691 2.45738 18.7481 2.33819 17.685ZM3.45349 21.8026L7.80403 19.9885C8.63838 22.1486 9.73665 24.1314 11.0648 25.8696C10.4007 26.5953 9.80476 27.3968 9.26839 28.2491C6.74832 26.8146 4.67947 24.5702 3.45349 21.8026ZM10.29 28.7638C10.7413 28.055 11.2351 27.3715 11.7885 26.764C12.8272 27.979 13.9935 29.0591 15.2621 29.9535C13.5083 29.886 11.831 29.4725 10.29 28.7638ZM17.2713 29.886C15.526 28.8903 13.9425 27.5656 12.5803 25.9624C13.1081 25.4562 13.6785 24.9583 14.283 24.5364C14.7938 24.1736 15.3387 23.853 15.9006 23.5661L18.1483 29.7341C17.8588 29.7932 17.5693 29.8522 17.2713 29.886Z" fill="white"/>
</g>
<path d="M42.5769 0H41.9229V31.9526H42.5769V0Z" fill="white"/>
<path d="M67.9509 4.07227H67.8643C66.7278 2.80675 64.6068 2.42497 62.9153 2.42497C58.5691 2.42497 55.255 5.23174 55.255 9.65753C55.255 14.0833 58.8148 17.4345 63.2176 17.4345C64.5291 17.4376 65.8347 17.2592 67.0972 16.9042V12.9504C67.0972 11.6919 67.0707 10.3415 65.8122 9.84489V9.76535H70.0737V9.84489C69.9376 10.1754 69.9376 10.619 69.9376 11.0291V17.3532C69.9376 17.7685 69.904 18.2051 70.0737 18.5904C67.8484 18.9952 65.6726 19.4017 63.4191 19.4017C56.2837 19.4017 52.0789 15.5733 52.0789 10.034C52.0789 4.11645 56.8422 0.450684 63.5834 0.450684C65.0537 0.453335 66.5197 0.608525 67.958 0.913765L67.9509 4.07227Z" fill="white"/>
<path d="M79.2258 16.982C81.117 17.0951 82.7608 16.4641 84.1535 15.31H84.2331L82.782 18.9581H71.3481V18.8785C72.7621 18.3801 72.6012 16.3528 72.6012 15.1085V4.76691C72.6012 3.50138 72.7656 1.49529 71.3481 0.973879V0.887268H76.6505V0.973879C75.2366 1.49529 75.4292 3.52966 75.4292 4.76691V16.7363L79.2258 16.982Z" fill="white"/>
<path d="M95.2569 2.3932C99.6579 2.3932 102.251 6.27284 102.251 10.2868C102.251 14.3803 99.5448 17.4398 95.3152 17.4398C90.9442 17.4398 88.1834 13.4789 88.1834 9.63283C88.1834 5.47746 90.9442 2.38613 95.2533 2.38613L95.2569 2.3932ZM95.4477 0.420683C89.5991 0.281051 84.9984 4.64144 84.9984 9.86967C84.9984 15.5062 89.6575 19.3929 95.1685 19.3929C100.68 19.3929 105.42 15.34 105.42 9.72827C105.42 4.77931 101.295 0.39417 95.446 0.420683" fill="white"/>
<path d="M110.972 16.777V9.97923L112.916 9.87671C115.36 9.73178 117.981 10.8913 117.981 13.5584C117.981 16.176 115.67 17.2171 113.386 16.9997L110.965 16.777H110.972ZM108.122 15.089C108.122 16.3581 108.299 18.3571 106.903 18.8838V18.9581H111.498C113.589 18.9581 115.784 19.0429 117.734 18.1114C119.602 17.2277 121.073 15.4213 121.073 13.2986C121.073 10.6191 119.044 8.96646 116.536 8.44328C118.126 7.75926 119.326 6.71645 119.326 4.87826C119.326 2.43206 117.177 0.889038 113.504 0.889038H106.91V0.975643C108.324 1.50589 108.129 3.50315 108.129 4.73863V15.089H108.122ZM110.972 8.17109V2.79439L112.831 2.60173C114.499 2.42499 116.283 3.42008 116.283 5.31836C116.283 7.56661 113.697 8.17109 111.885 8.17109H110.972Z" fill="white"/>
<path d="M134.06 10.1666H128.581L131.337 3.24513L134.062 10.1666H134.06ZM134.87 12.1921L136.369 16.063C137.125 17.9824 137.344 18.2829 135.978 18.8909V18.974H141.683V18.8909C140.093 18.0938 139.601 16.5596 138.96 14.9883L133.169 0.908508H128.774V0.995119C130.115 1.40518 129.581 2.55581 129.193 3.5456L124.549 14.9901C123.94 16.5614 123.469 18.0956 121.858 18.8927V18.9758H126.983V18.8927C125.649 18.4013 125.84 17.5989 126.423 16.0647L127.872 12.1939L134.87 12.1921Z" fill="white"/>
<path d="M150.549 16.982C152.44 17.0951 154.084 16.4641 155.473 15.31H155.56L154.111 18.9581H142.682V18.8785C144.096 18.3801 143.919 16.3528 143.919 15.1085V4.76691C143.919 3.50138 144.096 1.49529 142.682 0.973879V0.887268H147.995V0.973879C146.571 1.49529 146.758 3.52966 146.758 4.76691V16.7363L150.549 16.982Z" fill="white"/>
<path d="M65.9501 24.0361H69.3649C70.0007 24.0099 70.6257 24.2062 71.1324 24.5911C71.3511 24.7606 71.5269 24.9791 71.6457 25.229C71.7645 25.4789 71.823 25.7532 71.8164 26.0298C71.8194 26.3368 71.7367 26.6385 71.5778 26.9012C71.4151 27.1682 71.1909 27.3924 70.9238 27.5551C71.2537 27.7075 71.5395 27.941 71.7546 28.2338C71.9596 28.5115 72.0688 28.8484 72.0656 29.1936C72.0738 29.4852 72.0142 29.7747 71.8915 30.0394C71.7688 30.3041 71.5864 30.5367 71.3586 30.7189C70.8873 31.1078 70.2734 31.3016 69.5169 31.3004H65.9501V24.0361ZM69.2712 25.2821H67.4596V27.009H69.2748C69.5503 27.0223 69.822 26.9399 70.0436 26.7757C70.1346 26.6984 70.2076 26.6022 70.2577 26.4938C70.3078 26.3855 70.3337 26.2676 70.3337 26.1482C70.3337 26.0289 70.3078 25.9109 70.2577 25.8026C70.2076 25.6942 70.1346 25.5981 70.0436 25.5208C69.8217 25.3539 69.5486 25.2695 69.2712 25.2821ZM69.4162 30.0544C69.7144 30.0698 70.0085 29.9796 70.2469 29.7998C70.3446 29.7151 70.423 29.6103 70.4767 29.4926C70.5304 29.3749 70.5582 29.247 70.5582 29.1176C70.5582 28.9882 70.5304 28.8603 70.4767 28.7426C70.423 28.6249 70.3446 28.5201 70.2469 28.4353C70.0099 28.2523 69.7152 28.1601 69.4162 28.1755H67.4596V30.0544H69.4162Z" fill="white"/>
<path d="M87.8051 31.3005L90.7939 24.0361H92.5367L95.4831 31.3005H93.8552L93.1182 29.3916H90.1135L89.3658 31.3005H87.8051ZM90.5854 28.1879H92.6604L91.6335 25.5102L90.5854 28.1879Z" fill="white"/>
<path d="M111.661 24.0361H113.093L116.704 28.7376V24.0361H118.118V31.3005H116.788L113.077 26.4434V31.3005H111.663L111.661 24.0361Z" fill="white"/>
<path d="M134.999 31.3005V24.0361H136.503V27.2953L139.684 24.0361H141.517L138.011 27.4915L141.683 31.3005H139.67L136.503 27.8927V31.2969L134.999 31.3005Z" fill="white"/>
<defs>
<clipPath id="clip0_1035_719">
<rect x="0.998596" y="0.318604" width="31.11" height="31.11" rx="8" fill="white"/>
</clipPath>
</defs>
</svg>
