<svg width="31" height="31" viewBox="0 0 31 31" fill="none" xmlns="http://www.w3.org/2000/svg">
<path d="M22.6906 29.4369C22.6906 29.4369 23.022 29.6153 23.1665 29.6408C23.3194 29.6663 23.6084 29.7938 23.6084 29.7938L23.5064 29.8703C23.5064 29.8703 23.2345 29.8958 23.005 29.8958C22.7755 29.8958 22.5121 29.8448 22.5121 29.8448L22.1297 29.7513L22.2062 29.5219L22.3081 29.3009L22.0872 29.2499H21.7642L21.6283 29.2414H1.13878V0.015625H0V30.3802H30.3646V29.2414H22.4951L22.6906 29.4369Z" fill="white"/>
<path d="M22.4782 26.8966C22.4272 27.0241 22.4782 27.398 22.3847 27.4235C22.2997 27.4575 22.5207 27.7974 22.5207 27.7974L22.4697 28.0099H30.3561V26.8711H22.4952C22.4867 26.8796 22.4867 26.8881 22.4782 26.8966Z" fill="white"/>
<path d="M2.55786 5.97618C2.59186 5.92519 2.72783 5.77223 2.79582 5.74673C2.84681 5.72973 2.92329 5.56826 3.01677 5.50878C3.11875 5.46628 3.16124 5.33881 3.16124 5.33881C3.16124 5.33881 3.02527 5.31331 2.94879 5.34731C2.8723 5.3813 2.79582 5.3898 2.79582 5.3898C2.79582 5.3898 2.73633 5.31331 2.72783 5.25383C2.71933 5.20284 2.55786 5.22833 2.55786 5.22833L2.48138 5.14335C2.48138 5.14335 2.49837 5.03287 2.61735 4.96488C2.72783 4.8969 2.60036 4.79491 2.54087 4.82041C2.48138 4.8459 2.31141 4.92239 2.3709 4.8799C2.3879 4.8714 2.3709 4.8629 2.3709 4.8544V6.13765L2.44738 6.10366C2.43039 6.10366 2.53237 6.02717 2.55786 5.97618Z" fill="white"/>
<path d="M2.60944 3.85824C2.66893 3.83275 2.8134 3.83275 2.8134 3.83275L2.97487 3.77326C2.97487 3.77326 3.02586 3.70527 3.20433 3.76476L3.21282 3.61179C3.21282 3.61179 3.36579 3.41633 3.42528 3.37384C3.48477 3.32285 3.3233 3.23787 3.3233 3.23787L3.06835 3.33135L2.8049 3.34834L2.66043 3.28036C2.66043 3.28036 2.64344 3.19537 2.66043 3.13589C2.66893 3.0849 2.8219 2.99141 2.8219 2.99141C2.8219 2.99141 2.8219 2.89793 2.8134 2.84694C2.8134 2.79595 2.89839 2.69397 2.89839 2.69397L3.02586 2.72797C3.02586 2.72797 3.02586 2.72797 3.08535 2.61749C3.14484 2.49001 3.22132 2.558 3.22132 2.558L3.3488 2.67698L3.40829 2.77895L3.51027 2.76196V2.29455V2.28605V1.98861C3.45928 1.97161 3.40829 1.96312 3.40829 1.96312C3.40829 1.96312 3.36579 1.82714 3.44228 1.80165C3.46777 1.78465 3.50177 1.75915 3.51027 1.72516V0H2.35449V4.16419C2.37149 4.13869 2.37999 4.12169 2.39698 4.1047C2.49896 4.03671 2.54995 3.88374 2.60944 3.85824Z" fill="white"/>
<path d="M20.9149 28.0199C20.9064 28.0114 20.9064 28.0199 20.9149 28.0199C20.8809 27.9349 20.8044 27.7055 20.8044 27.7055C20.8044 27.7055 20.9064 27.442 20.8129 27.3315C20.7279 27.2381 20.8469 26.9236 20.8469 26.9236C20.8469 26.9236 20.8469 26.9066 20.8469 26.8726H3.49327V5.50781C3.46777 5.52481 3.44228 5.55031 3.42528 5.5673C3.36579 5.60979 3.20433 5.63529 3.06835 5.68628C2.93238 5.73727 2.8304 5.91573 2.71142 6.01771C2.58395 6.12819 2.59244 6.14519 2.42248 6.18768C2.39698 6.18768 2.37999 6.20468 2.35449 6.21318V28.0114H20.9149V28.0199Z" fill="white"/>
<path d="M20.4976 25.656C20.4466 25.5456 20.3956 25.4011 20.3956 25.3586C20.3956 25.2821 20.4041 25.0017 20.4976 24.9082C20.5231 24.8657 20.5316 24.6872 20.5316 24.5173H5.85499V5.23453C5.838 5.21753 5.821 5.20053 5.821 5.20053C5.821 5.20053 5.41308 5.00507 5.33659 4.96258C5.26861 4.91159 5.08164 4.8351 4.98816 4.79261C4.90318 4.74162 4.85219 4.74162 4.75021 4.8266C4.72471 4.8351 4.71622 4.8436 4.69922 4.8606L4.70772 25.656H20.4976Z" fill="white"/>
<path d="M4.83578 1.06161C4.75929 1.0786 4.90376 0.985121 4.99724 0.934131C5.08223 0.883141 5.13322 1.00212 5.13322 1.00212C5.13322 1.00212 5.26919 0.934129 5.32868 0.908634C5.38817 0.883139 5.40516 0.985121 5.40516 0.985121C5.43066 0.99362 5.46465 1.01062 5.49864 1.01911C5.55813 1.04461 5.58363 1.0701 5.60063 1.1126C5.61762 1.13809 5.60912 1.16359 5.60912 1.18908C5.60912 1.23157 5.63462 1.24857 5.66011 1.26557C5.7026 1.29956 5.7451 1.33355 5.78759 1.36755C5.81308 1.39304 5.83008 1.39304 5.85558 1.40154V0.0078125H4.7168V1.13809C4.75929 1.1126 4.90376 1.05311 4.83578 1.06161Z" fill="white"/>
<path d="M30.3561 24.5195H23.5149C23.5234 24.528 23.5404 24.545 23.5404 24.5535C23.6084 24.63 23.7274 24.6895 23.7614 24.8085C23.7954 24.9275 23.7954 25.0039 23.7019 25.1399C23.5829 25.2589 23.2175 25.3609 23.0645 25.3864C22.9625 25.3949 22.92 25.5563 22.8945 25.6583H30.3561V24.5195Z" fill="white"/>
<path d="M7.33376 2.08922C7.33376 2.09772 7.33376 2.09772 7.32526 2.09772C7.35076 2.10622 7.43574 2.14871 7.46124 2.14021C7.46973 2.14021 7.47823 2.14871 7.48673 2.15721C7.47823 2.15721 7.46974 2.16571 7.46974 2.16571C7.49523 2.1912 7.49523 2.23369 7.52922 2.25919C7.56322 2.27618 7.60571 2.28468 7.6397 2.30168C7.6312 2.27618 7.6482 2.24219 7.67369 2.23369C7.68219 2.2082 7.69919 2.1827 7.70769 2.15721C7.71619 2.11472 7.74168 2.08072 7.75018 2.03823C7.75018 2.02123 7.76718 1.98724 7.77567 1.96175C7.78417 1.93625 7.78417 1.93625 7.80967 1.93625C7.89465 1.93625 7.94564 2.02973 8.02213 1.97874C8.04762 1.96174 8.06462 1.95325 8.11561 1.94475C8.1411 1.93625 8.1751 1.93625 8.20909 1.91925V0.015625H7.07031V1.91925C7.10431 1.96175 7.1553 1.98724 7.18929 2.01273C7.24878 2.03823 7.29127 2.05523 7.33376 2.08922Z" fill="white"/>
<path d="M30.3558 22.1641H25.6222C25.5458 22.2151 25.4608 22.2575 25.4438 22.283C25.3928 22.3595 25.3758 22.589 25.3843 22.691C25.3928 22.7929 25.4013 23.0139 25.4013 23.0139C25.4013 23.0139 25.3843 23.1584 25.3418 23.3028H30.3558V22.1641Z" fill="white"/>
<path d="M7.98831 2.33814C8.06479 2.34664 8.11578 2.32965 8.15827 2.28715C8.16677 2.28715 8.19227 2.27865 8.20926 2.27016V2.11719C8.18377 2.14268 8.15828 2.17667 8.13278 2.18517C8.09879 2.20217 8.06479 2.20217 8.0308 2.20217C7.97981 2.23616 7.90332 2.31265 7.98831 2.33814Z" fill="white"/>
<path d="M20.3623 23.3021C20.3453 23.2257 20.3368 23.1577 20.3368 23.0897C20.3283 22.9197 20.3368 22.7667 20.3878 22.5628C20.4133 22.4863 20.4048 22.3163 20.3878 22.1549H8.20967V11.311C8.16718 11.226 8.09069 11.158 8.09069 11.158L7.95472 11.073C7.95472 11.073 7.76776 10.9541 7.73376 10.9031C7.69977 10.8521 7.5553 10.7076 7.5298 10.6736C7.49581 10.6141 7.50431 10.4187 7.50431 10.4187C7.50431 10.4187 7.37683 10.2827 7.34284 10.2232C7.31735 10.1722 7.19837 10.0277 7.20687 9.95975C7.21537 9.88326 7.21537 9.74729 7.21537 9.74729C7.21537 9.74729 7.21536 9.50934 7.19837 9.44135C7.18987 9.37336 7.21536 9.27138 7.24086 9.1779C7.27485 9.08442 7.32584 8.59152 7.41933 8.52353C7.50431 8.43005 7.5298 8.31957 7.5298 8.31957L7.63178 8.1751C7.63178 8.1751 7.61479 7.94564 7.5638 7.87765C7.51281 7.81817 7.33434 7.55472 7.26635 7.51223C7.19837 7.46974 7.13888 7.19779 7.09639 7.07031L7.08789 23.2766V23.2851H20.3623V23.3021Z" fill="white"/>
<path d="M9.4503 12.6682L9.89221 13.467V13.7305L9.4248 13.3141V20.9456H20.2857C20.2687 20.7501 19.9882 20.6736 19.8353 20.5972C19.6908 20.5207 19.3339 20.4442 19.2149 20.3167C19.0874 20.1892 18.8155 19.9088 18.773 19.8068C18.773 19.7983 18.773 19.7983 18.7645 19.7983H10.5806V13.4161L10.3001 13.2886L10.1557 13.2121L10.1727 13.0846L10.1642 12.9402C10.1642 12.9402 9.99419 12.8042 9.9687 12.7532C9.9347 12.6937 9.73074 12.5152 9.73074 12.5152C9.73074 12.5152 9.56078 12.3878 9.52678 12.3453C9.50129 12.2943 9.47579 12.2093 9.4503 12.1668C9.4503 12.1498 9.4333 12.1413 9.4248 12.1328V12.6087C9.4418 12.6257 9.4588 12.6512 9.4588 12.6512L9.4503 12.6682Z" fill="white"/>
<path d="M9.62818 2.26837C9.64518 2.28536 9.62818 2.30236 9.64518 2.31936C9.66218 2.37035 9.76416 2.39584 9.82364 2.39584C9.84914 2.39584 9.87464 2.41284 9.89163 2.39584C9.91713 2.39584 9.93412 2.37885 9.95112 2.37885C9.96812 2.37885 9.97661 2.40434 9.98511 2.40434C10.0021 2.41284 10.0191 2.42984 10.0446 2.43833C10.0701 2.46383 10.0956 2.46383 10.1126 2.48933C10.1126 2.48083 10.0956 2.48083 10.0956 2.47233C10.1126 2.48083 10.1211 2.49782 10.1296 2.50632C10.1296 2.49782 10.1126 2.49782 10.1041 2.48933C10.1381 2.54032 10.1806 2.58281 10.2486 2.55731C10.2826 2.55731 10.2826 2.54031 10.3081 2.52332C10.342 2.49782 10.325 2.52332 10.342 2.54881C10.3675 2.57431 10.4185 2.5998 10.3845 2.6253C10.376 2.65079 10.3335 2.65079 10.325 2.66779C10.2911 2.69329 10.2911 2.71878 10.2486 2.73578C10.2146 2.76127 10.1721 2.76127 10.1296 2.77827C10.1381 2.82076 10.1381 2.84626 10.1636 2.86325C10.1806 2.88025 10.1891 2.88025 10.2061 2.88875C10.2231 2.90575 10.2231 2.91424 10.2231 2.91424C10.2486 2.93974 10.2486 2.93974 10.2826 2.93974C10.325 2.94824 10.325 2.95674 10.3505 2.98223C10.393 3.00773 10.478 2.98223 10.5205 2.97373C10.5375 2.96523 10.5375 2.96523 10.546 2.96523V0.0078125H9.40723V2.17489C9.41572 2.17489 9.44122 2.17489 9.45822 2.18338C9.5347 2.20888 9.59419 2.21738 9.62818 2.26837Z" fill="white"/>
<path d="M30.3557 19.8086H27.4238V19.8171C27.4238 19.8171 27.4153 20.3525 27.3388 20.548C27.3048 20.6499 27.2538 20.7859 27.1943 20.9559H30.3642L30.3557 19.8086Z" fill="white"/>
<path d="M30.3557 18.5919V17.4531H25.7666L26.1915 17.6061L26.7694 17.6741C26.7694 17.6741 27.1008 17.7591 27.2113 17.7761C27.3303 17.8101 27.4578 18.0055 27.5258 18.116C27.5852 18.218 27.8827 18.1925 27.9677 18.2435C28.0527 18.2945 28.1886 18.5409 28.1886 18.5409C28.1886 18.5409 28.1801 18.5664 28.1631 18.6089H30.3557V18.5919Z" fill="white"/>
<path d="M12.9181 18.5929H17.8386C17.7536 18.4995 17.6856 18.4315 17.6516 18.389C17.5837 18.2785 17.5242 18.083 17.4562 18.0066C17.3967 17.9301 17.4477 17.6581 17.4477 17.6581V17.4542H12.9266V14.5307H12.7566L12.2382 14.4543C12.2382 14.4543 12.0937 14.0378 11.9748 13.9614C11.9153 13.9189 11.8303 13.8849 11.7793 13.8594L11.7878 17.4542V18.6014L12.9181 18.5929Z" fill="white"/>
<path d="M12.7055 5.91278C12.7565 5.91278 12.8075 5.91278 12.8585 5.92978C12.8755 5.93828 12.901 5.95527 12.9265 5.96377V4.47656C12.918 4.48506 12.9095 4.49356 12.9095 4.50206C12.7905 4.58704 12.7055 4.68902 12.629 4.808C12.629 4.7995 12.6375 4.7995 12.6375 4.791C12.6035 4.7825 12.5865 4.85049 12.5695 4.86749C12.5355 4.93547 12.4506 4.98646 12.4081 5.07145C12.3826 5.13943 12.3996 5.19892 12.3486 5.26691C12.3146 5.3264 12.3061 5.36889 12.3146 5.42838C12.3231 5.46237 12.3401 5.48787 12.3911 5.48787C12.4166 5.48787 12.4421 5.47087 12.4676 5.45387C12.4846 5.43687 12.4931 5.41988 12.527 5.41138C12.527 5.41988 12.5185 5.41988 12.5185 5.41988C12.5525 5.42838 12.544 5.47937 12.561 5.50486C12.578 5.52186 12.612 5.53886 12.6205 5.57285C12.6205 5.58135 12.629 5.67483 12.646 5.65783C12.6375 5.67483 12.629 5.68333 12.629 5.68333C12.68 5.72582 12.6545 5.77681 12.6375 5.8278C12.595 5.89579 12.629 5.91278 12.7055 5.91278Z" fill="white"/>
<path d="M11.8297 2.94228C11.8212 2.94228 11.8212 2.94228 11.8127 2.94228C11.8467 2.92528 11.8637 2.92528 11.9062 2.94228C11.9912 2.97627 12.0592 3.00176 12.1442 3.04425C12.1697 3.05275 12.2036 3.06125 12.2376 3.06975C12.2971 3.08675 12.3481 3.11224 12.4076 3.08675C12.4671 3.06975 12.5011 2.99326 12.5521 2.95077C12.5946 2.92528 12.6371 2.84879 12.6966 2.84879C12.7051 2.86579 12.6966 2.88279 12.6796 2.89978C12.6626 2.94228 12.6626 2.98477 12.6116 3.01026C12.6116 3.01026 12.6201 3.01026 12.6286 3.01026C12.6116 3.01876 12.6116 3.04425 12.6286 3.06125C12.6796 3.01876 12.7051 3.12074 12.7051 3.15473C12.6966 3.19723 12.5946 3.25671 12.6371 3.2992C12.5946 3.3247 12.6541 3.36719 12.6796 3.35869C12.739 3.35019 12.79 3.2907 12.8155 3.24821C12.8495 3.20572 12.875 3.14623 12.9005 3.09524C12.9005 3.07825 12.909 3.07825 12.926 3.06125V0.0273438H11.7872V2.96777C11.7872 2.95927 11.7872 2.95927 11.7957 2.95927C11.8042 2.95077 11.8127 2.94228 11.8297 2.94228Z" fill="white"/>
<path d="M12.1192 13.2645L12.2467 13.5195L12.5526 13.2135C12.5526 13.2135 12.6716 12.9501 12.7311 12.8481C12.7651 12.7716 12.8331 12.7036 12.9181 12.6696V11.1484L12.8076 11.1824C12.8076 11.1824 12.6971 11.2334 12.6801 11.2589C12.6546 11.3014 12.6631 11.3014 12.6036 11.3354C12.5441 11.3779 12.5187 11.3864 12.5187 11.3864L12.3657 11.3609L12.1277 11.3184L12.0342 11.3779C12.0342 11.3779 12.0512 11.3609 11.7793 11.5139V13.1965C11.8388 13.2645 11.9153 13.307 11.9578 13.3155C12.0427 13.341 12.1192 13.2645 12.1192 13.2645Z" fill="white"/>
<path d="M21.5944 15.2807L21.9173 15.3317L22.2402 15.5272L22.5802 15.7566L22.9626 15.7821H23.175L23.6679 15.9351C23.6679 15.9351 24.0249 16.1051 24.1524 16.2155C24.1524 16.2155 24.1694 16.224 24.1694 16.2325H30.3646V15.0938H21.5264C21.5689 15.0938 21.6114 15.1107 21.6453 15.1277C21.9173 15.2552 21.5944 15.2807 21.5944 15.2807Z" fill="white"/>
<path d="M17.6763 16.2314C17.7273 15.9934 17.1324 15.9084 17.0984 15.8404C17.0984 15.8404 16.903 15.8064 16.852 15.7385C16.801 15.679 16.5206 15.441 16.5206 15.441C16.3761 15.407 15.8917 15.509 15.8917 15.509L15.7897 15.6705C15.7897 15.6705 15.5177 15.645 15.4073 15.6365C15.3138 15.6195 15.1863 15.5175 15.1863 15.5175L14.8889 15.526L14.7359 15.4325L14.43 15.39L14.2175 15.322L14.1665 15.0926L14.124 15.0586L14.1325 15.0671V16.2229H17.6763V16.2314Z" fill="white"/>
<path d="M19.5889 15.1964C19.6739 15.1794 19.7419 15.1029 19.7419 15.1029C19.7504 15.1029 19.7674 15.0859 19.7844 15.0859H19.4189L19.4359 15.1369C19.4359 15.1284 19.5039 15.2049 19.5889 15.1964Z" fill="white"/>
<path d="M16.7499 15.1617L16.9199 15.2127H16.9284L17.1239 15.3487L17.2938 15.3572C17.2938 15.3572 17.5998 15.1957 17.8377 15.0938H16.6055L16.7499 15.1617Z" fill="white"/>
<path d="M14.4473 13.9263C14.4473 13.9263 14.5832 13.9518 14.6767 13.9518C14.7617 13.9518 14.7022 14.0708 14.7022 14.0708L14.7192 14.3427C14.7192 14.3427 14.7192 14.4532 14.7362 14.5467C14.7532 14.6402 14.6852 14.8866 14.6852 14.8866C14.6852 14.8866 14.7532 14.9291 14.8212 15.0056C14.8807 15.0906 14.9487 15.1161 15.1101 15.1755C15.2716 15.235 15.3396 15.303 15.3396 15.303C15.3396 15.303 15.62 15.303 15.688 15.2945C15.7645 15.2775 15.909 15.1246 15.909 15.1246L16.1979 15.0906H15.2801V9.03125C15.2631 9.04825 15.2291 9.06524 15.2291 9.06524C15.1781 9.08224 15.0931 9.14173 15.0676 9.16722C15.0336 9.17572 15.0081 9.23521 14.9996 9.2692C14.9826 9.2947 14.9062 9.32019 14.8722 9.32869C14.8297 9.34569 14.7872 9.34569 14.7532 9.37118C14.7192 9.39668 14.6937 9.46467 14.7022 9.50716C14.7022 9.54965 14.6682 9.62613 14.6597 9.63463C14.6512 9.66013 14.7022 9.73661 14.7107 9.77911C14.7192 9.8301 14.7362 9.85559 14.7362 9.85559C14.7362 9.85559 14.6597 10.0595 14.6257 10.085C14.6087 10.102 14.5152 10.1785 14.5152 10.1785C14.5152 10.1785 14.3538 10.3655 14.3028 10.3995C14.2773 10.408 14.1838 10.51 14.1328 10.5779V13.8668L14.2008 13.8243L14.4473 13.9263Z" fill="white"/>
<path d="M14.1662 7.18754C14.1747 7.22153 14.1747 7.22153 14.2172 7.21303C14.2597 7.19603 14.3107 7.18754 14.3532 7.17054C14.4212 7.11955 14.4552 7.05156 14.5147 7.00057C14.5741 6.94108 14.7101 6.8646 14.6421 6.77112C14.6166 6.73712 14.5826 6.71163 14.5741 6.66064C14.5656 6.62665 14.5826 6.59265 14.5571 6.56716C14.5232 6.50767 14.4552 6.49917 14.4297 6.43968C14.4212 6.41419 14.4297 6.41419 14.4637 6.3802C14.4892 6.3377 14.5316 6.31221 14.5741 6.27821C14.5996 6.26972 14.6336 6.26122 14.6421 6.24422C14.6506 6.23572 14.6421 6.23572 14.6421 6.22722C14.6591 6.19323 14.6846 6.16774 14.7101 6.15074C14.7356 6.13374 14.7611 6.12524 14.7781 6.09975C14.7951 6.06576 14.8206 6.03176 14.8376 5.99777C14.8971 5.92978 14.9651 5.81081 14.9141 5.72582C14.8801 5.68333 14.8631 5.64084 14.8291 5.60685C14.8206 5.58135 14.7951 5.57285 14.7866 5.54736C14.7781 5.52186 14.8206 5.49637 14.8121 5.46237C14.7951 5.43688 14.7356 5.43688 14.7356 5.41988C14.7271 5.39439 14.8036 5.3349 14.8291 5.3264C14.8206 5.3009 14.8291 5.24992 14.8631 5.22442C14.8716 5.21592 14.8886 5.20742 14.9056 5.19043C14.9226 5.16493 14.9141 5.13944 14.9226 5.11394C14.9226 5.08845 14.9396 5.07145 14.9481 5.04596C14.9481 5.02046 14.9311 5.00346 14.9141 4.98647C14.8631 4.93548 14.8291 4.90148 14.8631 4.842C14.8886 4.78251 14.9311 4.73152 14.9736 4.67203C14.9991 4.64653 15.0161 4.62954 15.0246 4.58705C15.0331 4.57005 15.0331 4.55305 15.0415 4.52756C15.0585 4.49356 15.118 4.50206 15.1605 4.51056C15.186 4.51906 15.203 4.51906 15.22 4.54455C15.2285 4.55305 15.2285 4.57005 15.254 4.57855C15.254 4.57855 15.2625 4.57855 15.271 4.58705V0.0234375H14.1322V3.07434C14.1407 3.06584 14.1407 3.06584 14.1577 3.04885C14.2087 2.99786 14.2172 2.93837 14.2427 2.87888C14.2597 2.83639 14.2682 2.7684 14.2852 2.71741C14.2937 2.69192 14.3277 2.65792 14.3447 2.64093C14.3617 2.62393 14.3957 2.60693 14.4127 2.60693C14.4382 2.56444 14.3957 2.56444 14.3787 2.53895C14.3787 2.50495 14.3787 2.50495 14.3957 2.48796C14.3957 2.46246 14.4212 2.42847 14.4637 2.43696C14.4977 2.43696 14.4977 2.47096 14.5232 2.49645C14.5402 2.51345 14.5571 2.50495 14.5826 2.51345C14.5996 2.53045 14.6166 2.54744 14.6421 2.56444C14.6846 2.58144 14.7526 2.58994 14.7526 2.64093C14.7611 2.68342 14.7101 2.71741 14.6846 2.74291C14.6591 2.7854 14.6591 2.82789 14.6166 2.87038C14.5996 2.88738 14.5486 2.91287 14.5486 2.93837C14.5486 2.94687 14.5911 2.97236 14.5996 2.98086C14.6166 2.99786 14.6761 3.01485 14.6846 3.03185C14.6931 3.04885 14.6591 3.09134 14.6506 3.10834C14.6336 3.15083 14.6081 3.16782 14.5656 3.20182C14.5147 3.24431 14.5316 3.31229 14.4722 3.34629C14.4297 3.35479 14.3617 3.34629 14.3277 3.32929C14.3107 3.32929 14.3107 3.31229 14.2937 3.3038C14.2342 3.2698 14.2087 3.34629 14.1662 3.35479C14.1492 3.35479 14.1322 3.35479 14.1152 3.34629V7.13655C14.1237 7.13655 14.1322 7.15354 14.1322 7.16204C14.1662 7.13655 14.1577 7.17904 14.1662 7.18754Z" fill="white"/>
<path d="M30.356 13.8856V12.7383H17.634V6.6875C17.5745 6.72999 17.5405 6.76399 17.5235 6.78948C17.4725 6.83197 17.3196 6.94245 17.1496 6.98494C16.9711 7.02743 16.7247 7.02743 16.7247 7.02743C16.7247 7.02743 16.5887 7.06143 16.4697 7.09542V7.80928C16.4697 7.81778 16.4867 7.81778 16.4867 7.81778C16.5632 7.84328 16.6142 7.89427 16.6482 7.94526C16.6737 7.97925 16.7077 8.03874 16.7502 8.05573C16.7927 8.07273 16.9201 7.96225 16.9201 7.96225L17.0136 7.90276L17.0306 7.97925C17.0306 7.97925 17.0306 8.01324 16.9796 8.03874C16.9371 8.04724 16.9371 8.08973 16.8691 8.14072C16.8012 8.19171 16.7502 8.2427 16.6992 8.25969C16.6567 8.27669 16.5377 8.27669 16.5037 8.29369C16.4952 8.29369 16.4782 8.29369 16.4867 8.29369L16.4697 13.8856H30.356Z" fill="white"/>
<path d="M16.7158 5.00415L16.8348 4.97866C16.8348 4.97866 16.8518 5.04664 16.8433 5.13163C16.8348 5.20811 16.8518 5.35258 16.8603 5.36108C16.8688 5.38658 16.8942 5.40357 16.9282 5.40357C16.9792 5.38658 17.0302 5.48006 17.0897 5.50555C17.1577 5.53954 17.1832 5.58204 17.1832 5.63303C17.1747 5.68402 17.1322 5.70951 17.1237 5.81149C17.1067 5.90497 17.2597 5.91347 17.3107 5.93897C17.3617 5.95596 17.5741 5.98146 17.5826 5.99846C17.5911 6.00695 17.6251 6.06644 17.6251 6.10043V0.015625H16.4863V5.37808C16.4948 5.32709 16.5798 5.14862 16.5968 5.12313C16.6223 5.08913 16.7158 5.00415 16.7158 5.00415Z" fill="white"/>
<path d="M17.2177 6.72219C17.2177 6.72219 17.2517 6.6542 17.2432 6.6457C17.2347 6.6202 17.2517 6.58621 17.2856 6.56072C17.3111 6.51822 17.3621 6.52672 17.4386 6.52672C17.4726 6.51823 17.5491 6.48423 17.6171 6.45024V6.10181C17.6171 6.1103 17.6171 6.1273 17.6001 6.1273C17.5491 6.1358 17.5491 6.24628 17.4726 6.28877C17.4131 6.33126 17.2601 6.36526 17.2092 6.41625C17.1582 6.47573 17.2432 6.51823 17.2432 6.54372C17.2432 6.56072 17.2262 6.57772 17.1752 6.6372C17.1327 6.69669 17.2177 6.72219 17.2177 6.72219Z" fill="white"/>
<path d="M19.9884 10.3751V0.015625H18.8496V11.5224H30.3564V10.3751H19.9884Z" fill="white"/>
<path d="M30.3558 9.16834V8.02106H22.3419V0.015625H21.2031V9.14284L30.3558 9.16834Z" fill="white"/>
<path d="M30.356 6.8058V5.66702H24.7046V0.015625H23.5488V6.7888L30.356 6.8058Z" fill="white"/>
<path d="M30.3562 4.45176V3.31298H27.0588V0.015625H25.8945V4.45176H30.3562Z" fill="white"/>
<path d="M30.3555 2.09772V0.950442H29.4207V0.015625H28.2734V2.09772H30.3555Z" fill="white"/>
<path d="M12.917 4.35156V4.47904C12.934 4.46204 12.9595 4.43655 12.951 4.41955C12.9425 4.38556 12.917 4.36856 12.917 4.35156Z" fill="white"/>
</svg>
