<svg width="1400" height="900" viewBox="0 0 1400 900" fill="none" xmlns="http://www.w3.org/2000/svg">
  <rect width="1400" height="900" fill="#1F2328"/>
  <path d="M0 0H1400V900H0z" fill="url(#g)"/>
  <circle cx="1160" cy="120" r="320" fill="#EA6A1C" fill-opacity=".18"/>
  <circle cx="170" cy="760" r="260" fill="#B0B0B0" fill-opacity=".18"/>
  <rect x="165" y="170" width="1070" height="560" rx="38" fill="white" fill-opacity=".92"/>
  <rect x="220" y="230" width="420" height="310" rx="24" fill="#F7F7F5"/>
  <rect x="690" y="230" width="490" height="82" rx="18" fill="#1F2328"/>
  <rect x="690" y="346" width="370" height="30" rx="15" fill="#71706F" fill-opacity=".32"/>
  <rect x="690" y="396" width="430" height="30" rx="15" fill="#71706F" fill-opacity=".22"/>
  <rect x="690" y="446" width="310" height="30" rx="15" fill="#71706F" fill-opacity=".22"/>
  <path d="M270 470H590" stroke="#EA6A1C" stroke-width="24" stroke-linecap="round"/>
  <path d="M310 410H540" stroke="#1F2328" stroke-width="24" stroke-linecap="round"/>
  <path d="M352 350H505" stroke="#B0B0B0" stroke-width="24" stroke-linecap="round"/>
  <rect x="690" y="560" width="220" height="88" rx="18" fill="#EA6A1C"/>
  <rect x="940" y="560" width="240" height="88" rx="18" fill="#F7F7F5"/>
  <text x="700" y="795" fill="#1F2328" fill-opacity=".06" font-family="Arial" font-size="190" font-weight="800" text-anchor="middle">PC</text>
  <defs><linearGradient id="g" x1="0" x2="1400" y1="0" y2="900"><stop stop-color="#fff"/><stop offset=".5" stop-color="#f7f7f5"/><stop offset="1" stop-color="#fff"/></linearGradient></defs>
</svg>
