<svg xmlns="http://www.w3.org/2000/svg" fill="none" viewBox="0 0 24 24" stroke-width="1.8" stroke="currentColor">
  <path stroke-linecap="round" stroke-linejoin="round" d="M20.25 14.15v4.25A2.25 2.25 0 0 1 18 20.65H6a2.25 2.25 0 0 1-2.25-2.25v-4.25m16.5 0A2.25 2.25 0 0 0 18 11.9H6a2.25 2.25 0 0 0-2.25 2.25m16.5 0v-4.5A2.25 2.25 0 0 0 18 7.4H6a2.25 2.25 0 0 0-2.25 2.25v4.5m16.5 0h-5.625m-10.875 0h5.625m0 0v1.125c0 .621.504 1.125 1.125 1.125h2.25c.621 0 1.125-.504 1.125-1.125V14.15m-4.5 0h4.5M9.75 7.4V5.15A2.25 2.25 0 0 1 12 2.9h0a2.25 2.25 0 0 1 2.25 2.25V7.4" />
</svg>
